<svg width="46" height="37" viewBox="0 0 46 37" fill="none" xmlns="http://www.w3.org/2000/svg">
<path d="M45.8216 15.1094L41.0711 6.81816C40.9089 6.53497 40.6568 6.33067 40.3687 6.2242C40.3675 6.22375 40.3667 6.22312 40.3656 6.22276L23.6104 0.0823019C23.3134 -0.0265887 22.9876 -0.0273973 22.69 0.0796965L5.64152 6.22016C5.64107 6.22034 5.6408 6.2207 5.64035 6.22088C5.34845 6.32635 5.09284 6.5321 4.92888 6.81807L0.1783 15.1094C-0.0168408 15.4501 -0.0537665 15.8589 0.0772256 16.2289C0.208218 16.599 0.494011 16.8936 0.859944 17.0356L4.75054 18.5459V28.8518C4.75054 29.42 5.10695 29.9271 5.64152 30.1197L22.5603 36.2134C22.7329 36.2937 22.9246 36.3398 23.1275 36.3398C23.1305 36.3398 23.1334 36.3394 23.1363 36.3394C23.1398 36.3394 23.1433 36.3398 23.1467 36.3398C23.3012 36.3398 23.4557 36.3132 23.6033 36.2601L40.6518 30.1197C41.1864 29.9271 41.5428 29.42 41.5428 28.8518V18.432L45.14 17.0356C45.5059 16.8936 45.7918 16.599 45.9227 16.2289C46.0538 15.8589 46.0168 15.4501 45.8216 15.1094ZM23.1427 2.78148L35.9919 7.49046L23.1239 12.2242L10.0644 7.49199L23.1427 2.78148ZM6.70428 9.14116L21.1521 14.3765L17.5285 20.6148L3.29579 15.09L6.70428 9.14116ZM7.44585 19.5922L17.6272 23.5445C17.7868 23.6064 17.9516 23.636 18.1145 23.636C18.5829 23.636 19.0329 23.3908 19.2802 22.9651L21.7798 18.662V33.0675L7.44585 27.9048V19.5922ZM38.8475 27.9048L24.4751 33.0814V18.8945L26.7048 22.9388C27.0307 23.5299 27.7437 23.7887 28.3727 23.5445L38.8475 19.4783V27.9048ZM28.4961 20.6053L25.0651 14.3821L39.2985 9.14601L42.7041 15.09L28.4961 20.6053Z" fill="#A0C3FF"/>
</svg>
