<svg width="43" height="50" viewBox="0 0 43 50" fill="none" xmlns="http://www.w3.org/2000/svg">
<path d="M26.8208 14.3333L34.0117 7.4408L26.8208 0L25.023 1.95811L30.5726 7.4408L25.023 12.6885L26.8208 14.3333Z" fill="#C4C4C4"/>
<path d="M17.8667 33H15.75V24.8408L13.2231 25.6245V23.9033L17.6396 22.3213H17.8667V33ZM28.5161 28.5908C28.5161 30.0654 28.2109 31.1934 27.6006 31.9746C26.9902 32.7559 26.0967 33.1465 24.9199 33.1465C23.7578 33.1465 22.8691 32.7632 22.2539 31.9966C21.6387 31.23 21.3237 30.1313 21.3091 28.7007V26.7378C21.3091 25.2485 21.6167 24.1182 22.2319 23.3467C22.8521 22.5752 23.7432 22.1895 24.9053 22.1895C26.0674 22.1895 26.9561 22.5728 27.5713 23.3394C28.1865 24.1011 28.5015 25.1973 28.5161 26.6279V28.5908ZM26.3994 26.4375C26.3994 25.5537 26.2773 24.9116 26.0332 24.5112C25.7939 24.106 25.418 23.9033 24.9053 23.9033C24.4072 23.9033 24.0386 24.0962 23.7993 24.4819C23.5649 24.8628 23.4404 25.4609 23.4258 26.2764V28.8691C23.4258 29.7383 23.543 30.3853 23.7773 30.8101C24.0166 31.23 24.3975 31.4399 24.9199 31.4399C25.4375 31.4399 25.811 31.2373 26.0405 30.832C26.27 30.4268 26.3896 29.8066 26.3994 28.9717V26.4375Z" fill="#E4E4E4"/>
<path fill-rule="evenodd" clip-rule="evenodd" d="M3 27.5735C3 37.7908 11.2827 46.0735 21.5 46.0735C31.7173 46.0735 40 37.7908 40 27.5735C40 25.1392 39.5298 22.8147 38.6753 20.6859L40.9538 18.4074C42.2662 21.1878 43 24.295 43 27.5735C43 39.4476 33.3741 49.0735 21.5 49.0735C9.62588 49.0735 0 39.4476 0 27.5735C0 15.6994 9.62588 6.07349 21.5 6.07349C22.8333 6.07349 24.1383 6.19486 25.4045 6.42715L22.7187 9.11298C22.3158 9.08679 21.9095 9.07349 21.5 9.07349C11.2827 9.07349 3 17.3562 3 27.5735Z" fill="#E4E4E4"/>
<path d="M19.5327 14.3333L26.7236 7.4408L19.5327 0L17.7349 1.95811L23.2845 7.4408L17.7349 12.6885L19.5327 14.3333Z" fill="#E4E4E4"/>
</svg>
