<svg width="14" height="12" viewBox="0 0 14 12" fill="none" xmlns="http://www.w3.org/2000/svg">
<path d="M7.06793 7.78545L5.55549 6.29087L5.57335 6.27301C6.60942 5.11784 7.34777 3.79001 7.78246 2.38475H9.52712V1.1909H5.35899V0H4.1681V1.1909H0V2.37582H6.6511C6.24917 3.52502 5.62097 4.61468 4.76353 5.56741C4.20977 4.95112 3.75127 4.28125 3.38806 3.57266H2.19719C2.63185 4.54323 3.22731 5.46023 3.9716 6.28789L0.943769 9.27999L1.78633 10.1226L4.76356 7.14533L6.6154 8.99716L7.06793 7.78545Z" fill="#E4E4E4"/>
<path d="M10.4202 4.76343H9.2293L6.5498 11.9088H7.7407L8.41058 10.1224H11.2389L11.9088 11.9088H13.0997L10.4202 4.76343ZM8.85716 8.93153L9.82476 6.35028L10.7924 8.93153H8.85716Z" fill="#E4E4E4"/>
</svg>
