<svg width="284" height="284" viewBox="0 0 284 284" fill="none" xmlns="http://www.w3.org/2000/svg">
<circle opacity="0.2" cx="142" cy="142" r="62" fill="#A0C3FF"/>
<circle opacity="0.2" cx="142" cy="142" r="101.5" stroke="#9FA8B8"/>
<circle opacity="0.2" cx="142" cy="142" r="141.5" stroke="#9FA8B8"/>
<path d="M140.894 153.106C141.505 153.717 142.495 153.717 143.106 153.106L153.058 143.153C153.669 142.542 153.669 141.552 153.058 140.942C152.448 140.331 151.458 140.331 150.847 140.942L142 149.788L133.153 140.942C132.542 140.331 131.552 140.331 130.942 140.942C130.331 141.552 130.331 142.542 130.942 143.153L140.894 153.106ZM140.436 122V152H143.564V122H140.436Z" fill="#A0C3FF"/>
<rect x="124" y="160" width="36" height="2" rx="1" fill="#A0C3FF"/>
</svg>
