<svg width="68" height="59" viewBox="0 0 68 59" fill="none" xmlns="http://www.w3.org/2000/svg">
<rect x="31.3333" y="56.3501" width="30" height="2" transform="rotate(-0.24852 31.3333 56.3501)" fill="#A0C3FF"/>
<path d="M10.7812 10.7813C6.70867 14.8538 4.4658 20.2688 4.46588 26.0284L6.95175 26.0284C6.95167 20.9328 8.936 16.1421 12.5391 12.5391C16.1422 8.93593 20.9328 6.95167 26.0284 6.95175L26.0284 4.46588C20.2688 4.4658 14.8539 6.70859 10.7812 10.7813Z" fill="#323F56"/>
<path d="M11.0297 26.0283L13.5156 26.0283C13.5155 22.6861 14.8169 19.5439 17.1804 17.1804C19.5438 14.817 22.686 13.5154 26.0284 13.5155L26.0284 11.0296C22.0221 11.0296 18.2556 12.5897 15.4228 15.4226C12.5899 18.2554 11.0295 22.022 11.0297 26.0283Z" fill="#323F56"/>
<path d="M17.5942 26.0284L20.0801 26.0284C20.0801 24.4394 20.699 22.9457 21.8224 21.8222C22.946 20.6986 24.4398 20.0799 26.0285 20.08L26.0285 17.5941C23.7757 17.5941 21.6577 18.4714 20.0646 20.0644C18.4716 21.6575 17.5943 23.7755 17.5942 26.0284Z" fill="#323F56"/>
<rect x="26.0043" y="27.1817" width="40" height="25.2886" rx="1" transform="rotate(-0.24852 26.0043 27.1817)" fill="#171E2C" stroke="#A0C3FF" stroke-width="2"/>
<g filter="url(#filter0_d)">
<path d="M50.7687 39.1706C51.3571 39.567 51.3571 40.433 50.7687 40.8294L44.5587 45.0123C43.8944 45.4597 43 44.9838 43 44.1829L43 35.8171C43 35.0162 43.8944 34.5403 44.5587 34.9877L50.7687 39.1706Z" fill="#A0C3FF"/>
</g>
<defs>
<filter id="filter0_d" x="39" y="32.8154" width="16.21" height="18.3692" filterUnits="userSpaceOnUse" color-interpolation-filters="sRGB">
<feFlood flood-opacity="0" result="BackgroundImageFix"/>
<feColorMatrix in="SourceAlpha" type="matrix" values="0 0 0 0 0 0 0 0 0 0 0 0 0 0 0 0 0 0 127 0" result="hardAlpha"/>
<feOffset dy="2"/>
<feGaussianBlur stdDeviation="2"/>
<feColorMatrix type="matrix" values="0 0 0 0 0 0 0 0 0 0 0 0 0 0 0 0 0 0 0.1 0"/>
<feBlend mode="normal" in2="BackgroundImageFix" result="effect1_dropShadow"/>
<feBlend mode="normal" in="SourceGraphic" in2="effect1_dropShadow" result="shape"/>
</filter>
</defs>
</svg>
