<svg width="68" height="59" viewBox="0 0 68 59" fill="none" xmlns="http://www.w3.org/2000/svg">
<rect x="31.333" y="56.3501" width="30" height="2" transform="rotate(-0.24852 31.333 56.3501)" fill="#A0C3FF"/>
<path d="M10.7812 10.7813C6.70867 14.8538 4.4658 20.2688 4.46588 26.0284L6.95175 26.0284C6.95167 20.9328 8.936 16.1421 12.5391 12.5391C16.1422 8.93593 20.9328 6.95167 26.0284 6.95175L26.0284 4.46588C20.2688 4.4658 14.8539 6.70859 10.7812 10.7813Z" fill="#E3EDFF"/>
<path d="M11.0297 26.0283H13.5156C13.5155 22.6861 14.8169 19.5439 17.1804 17.1804C19.5438 14.817 22.686 13.5154 26.0284 13.5155V11.0296C22.0221 11.0296 18.2556 12.5897 15.4228 15.4226C12.5899 18.2554 11.0295 22.022 11.0297 26.0283Z" fill="#E3EDFF"/>
<path d="M17.5945 26.0284L20.0803 26.0284C20.0803 24.4394 20.6992 22.9457 21.8227 21.8222C22.9462 20.6986 24.44 20.0799 26.0288 20.08L26.0288 17.5941C23.776 17.5941 21.6579 18.4714 20.0649 20.0644C18.4718 21.6575 17.5945 23.7755 17.5945 26.0284Z" fill="#E3EDFF"/>
<rect x="26.0043" y="27.1817" width="40" height="25.2886" rx="1" transform="rotate(-0.24852 26.0043 27.1817)" fill="white" stroke="#A0C3FF" stroke-width="2"/>
<path d="M50.7687 39.1706C51.3571 39.567 51.3571 40.433 50.7687 40.8294L44.5587 45.0123C43.8944 45.4597 43 44.9838 43 44.1829L43 35.8171C43 35.0162 43.8944 34.5403 44.5587 34.9877L50.7687 39.1706Z" fill="#A0C3FF"/>
</svg>
