<svg width="21" height="21" viewBox="0 0 21 21" fill="none" xmlns="http://www.w3.org/2000/svg">
    <path d="M10.1073 0.0021683C10.0867 0.00591854 10.0661 0.0115432 10.0473 0.0171683C9.82419 0.0677934 9.66669 0.268419 9.67232 0.497168V3.37717C9.67044 3.54967 9.76044 3.71092 9.91044 3.79904C10.0604 3.88529 10.2442 3.88529 10.3942 3.79904C10.5442 3.71092 10.6342 3.54967 10.6323 3.37717V0.497168C10.6379 0.358419 10.5817 0.225293 10.4823 0.131543C10.3811 0.0359184 10.2442 -0.0109568 10.1073 0.0021683ZM3.26732 2.82217C3.08732 2.85404 2.94294 2.98529 2.89232 3.15967C2.84169 3.33592 2.89419 3.52342 3.02732 3.64717L5.06732 5.68717C5.18357 5.82967 5.36919 5.89529 5.54919 5.85404C5.72732 5.81279 5.86794 5.67217 5.90919 5.49404C5.95044 5.31404 5.88482 5.12842 5.74232 5.01217L3.70232 2.97217C3.60294 2.86529 3.45857 2.81092 3.31232 2.82217C3.29732 2.82217 3.28232 2.82217 3.26732 2.82217ZM16.8873 2.82217C16.7786 2.83717 16.6773 2.89154 16.6023 2.97217L14.5623 5.01217C14.4198 5.12842 14.3542 5.31404 14.3954 5.49404C14.4367 5.67217 14.5773 5.81279 14.7554 5.85404C14.9354 5.89529 15.1211 5.82967 15.2373 5.68717L17.2773 3.64717C17.4273 3.50467 17.4704 3.28154 17.3823 3.09404C17.2923 2.90467 17.0936 2.79592 16.8873 2.82217ZM10.1523 5.29717C7.50482 5.29717 5.35232 7.44967 5.35232 10.0972C5.35232 12.7447 7.50482 14.8972 10.1523 14.8972C12.7998 14.8972 14.9523 12.7447 14.9523 10.0972C14.9523 7.44967 12.7998 5.29717 10.1523 5.29717ZM0.417316 9.61717C0.152941 9.65467 -0.0326837 9.90029 0.00481626 10.1647C0.0423163 10.429 0.287941 10.6147 0.552316 10.5772H3.43232C3.60482 10.579 3.76607 10.489 3.85419 10.339C3.94044 10.189 3.94044 10.0053 3.85419 9.85529C3.76607 9.70529 3.60482 9.61529 3.43232 9.61717H0.552316C0.537316 9.61717 0.522316 9.61717 0.507316 9.61717C0.492316 9.61717 0.477316 9.61717 0.462316 9.61717C0.447316 9.61717 0.432316 9.61717 0.417316 9.61717ZM16.7373 9.61717C16.4729 9.65467 16.2873 9.90029 16.3248 10.1647C16.3623 10.429 16.6079 10.6147 16.8723 10.5772H19.7523C19.9248 10.579 20.0861 10.489 20.1742 10.339C20.2604 10.189 20.2604 10.0053 20.1742 9.85529C20.0861 9.70529 19.9248 9.61529 19.7523 9.61717H16.8723C16.8573 9.61717 16.8423 9.61717 16.8273 9.61717C16.8123 9.61717 16.7973 9.61717 16.7823 9.61717C16.7673 9.61717 16.7523 9.61717 16.7373 9.61717ZM5.35232 14.3572C5.24357 14.3722 5.14232 14.4265 5.06732 14.5072L3.02732 16.5472C2.88482 16.6634 2.81919 16.849 2.86044 17.029C2.90169 17.2072 3.04232 17.3478 3.22044 17.389C3.40044 17.4303 3.58607 17.3647 3.70232 17.2222L5.74232 15.1822C5.88482 15.0453 5.92794 14.8334 5.85107 14.6515C5.77607 14.4697 5.59419 14.3534 5.39732 14.3572C5.38232 14.3572 5.36732 14.3572 5.35232 14.3572ZM14.8023 14.3572C14.6223 14.389 14.4779 14.5203 14.4273 14.6947C14.3767 14.8709 14.4292 15.0584 14.5623 15.1822L16.6023 17.2222C16.7186 17.3647 16.9042 17.4303 17.0842 17.389C17.2623 17.3478 17.4029 17.2072 17.4442 17.029C17.4854 16.849 17.4198 16.6634 17.2773 16.5472L15.2373 14.5072C15.1473 14.4115 15.0236 14.359 14.8923 14.3572C14.8773 14.3572 14.8623 14.3572 14.8473 14.3572C14.8323 14.3572 14.8173 14.3572 14.8023 14.3572ZM10.1073 16.3222C10.0867 16.3259 10.0661 16.3315 10.0473 16.3372C9.82419 16.3878 9.66669 16.5884 9.67232 16.8172V19.6972C9.67044 19.8697 9.76044 20.0309 9.91044 20.119C10.0604 20.2053 10.2442 20.2053 10.3942 20.119C10.5442 20.0309 10.6342 19.8697 10.6323 19.6972V16.8172C10.6379 16.6784 10.5817 16.5453 10.4823 16.4515C10.3811 16.3559 10.2442 16.309 10.1073 16.3222Z"
          fill="#A4A8AB"/>
</svg>
