<svg width="15" height="19" viewBox="0 0 15 19" fill="none" xmlns="http://www.w3.org/2000/svg">
<path fill-rule="evenodd" clip-rule="evenodd" d="M2 0C0.895431 0 0 0.895431 0 2V19H0.0769424L7.50002 15.8333L14.9231 19H15V2C15 0.895431 14.1046 0 13 0H2Z" fill="#A2A6AD"/>
<path fill-rule="evenodd" clip-rule="evenodd" d="M7.50012 3.99976C7.18453 3.99976 6.92869 4.25559 6.92869 4.57118V7.5241L4.07143 7.5241C3.75584 7.5241 3.5 7.77994 3.5 8.09553C3.5 8.41112 3.75584 8.66696 4.07143 8.66696H6.92869V11.4283C6.92869 11.7439 7.18453 11.9998 7.50012 11.9998C7.81571 11.9998 8.07155 11.7439 8.07155 11.4283V8.66696H10.9286C11.2442 8.66696 11.5 8.41112 11.5 8.09553C11.5 7.77994 11.2442 7.5241 10.9286 7.5241L8.07155 7.5241V4.57118C8.07155 4.25559 7.81571 3.99976 7.50012 3.99976Z" fill="#171E2C"/>
</svg>
