<svg width="24" height="13" viewBox="0 0 24 13" fill="none" xmlns="http://www.w3.org/2000/svg">
<path d="M17.9025 3.80992L19.7448 0.548092C19.8657 0.332145 19.8227 0.166551 19.6153 0.0501111C19.3903 -0.0502942 19.2173 0.000582795 19.0965 0.199146L17.2285 3.48705C15.5848 2.78953 13.8463 2.44013 12.013 2.44013C10.1794 2.44013 8.44074 2.7896 6.79766 3.48705L4.92958 0.199146C4.80818 0.000582795 4.63526 -0.0498447 4.41074 0.0501111C4.20292 0.167076 4.15991 0.332145 4.2813 0.548092L6.12362 3.80992C4.25554 4.72428 2.76773 5.9977 1.66073 7.63296C0.553733 9.26912 0 11.0571 0 13H24C24 11.0575 23.4462 9.26949 22.3393 7.63296C21.2322 5.9977 19.753 4.72428 17.9025 3.80992ZM7.25154 8.55429C7.05231 8.74596 6.81436 8.84135 6.53777 8.84135C6.26063 8.84135 6.02752 8.74596 5.83735 8.55429C5.64717 8.36352 5.55209 8.13604 5.55209 7.86966C5.55209 7.60419 5.64717 7.37625 5.83735 7.18503C6.02752 6.99426 6.26118 6.89888 6.53777 6.89888C6.81436 6.89888 7.05231 6.99426 7.25154 7.18503C7.4503 7.3767 7.55015 7.60419 7.55015 7.86966C7.5496 8.13559 7.44983 8.36352 7.25154 8.55429ZM18.1877 8.55429C17.9972 8.74596 17.7635 8.84135 17.4874 8.84135C17.2102 8.84135 16.9723 8.74596 16.7734 8.55429C16.5743 8.36352 16.4749 8.13604 16.4749 7.86966C16.4749 7.60419 16.5743 7.37625 16.7734 7.18503C16.9723 6.99426 17.2102 6.89888 17.4874 6.89888C17.764 6.89888 17.9971 6.99426 18.1877 7.18503C18.378 7.3767 18.473 7.60419 18.473 7.86966C18.473 8.13559 18.378 8.36352 18.1877 8.55429Z" fill="white"/>
</svg>
