<svg width="12" height="12" viewBox="0 0 12 12" fill="none" xmlns="http://www.w3.org/2000/svg">
<path d="M6 0C2.68624 0 0 2.68634 0 6C0 9.31385 2.68624 12 6 12C9.31376 12 12 9.31385 12 6C12 2.68634 9.31376 0 6 0ZM6 9C5.58577 9 5.25 8.66438 5.25 8.25C5.25 7.83581 5.58577 7.5 6 7.5C6.41423 7.5 6.75 7.83581 6.75 8.25C6.75 8.66438 6.41423 9 6 9ZM6.75 6.375H5.25L4.875 3.375C4.875 3.16791 5.04291 3 5.25 3H6.75C6.95709 3 7.125 3.16791 7.125 3.375L6.75 6.375Z" fill="#787E87" fill-opacity="0.5"/>
</svg>
