<svg width="196" height="149" viewBox="0 0 196 149" fill="none" xmlns="http://www.w3.org/2000/svg">
<path d="M73.0219 105.245H78.4893V107.553H70V105.356L75.4186 98.4396H70.2602V96.242H78.4405L78.4567 98.4396L73.0219 105.245Z" fill="black"/>
<path d="M80.7859 99.6861C81.6858 98.8027 82.7862 98.3611 84.0873 98.3611C85.3883 98.3611 86.4888 98.8027 87.3886 99.6861C88.2994 100.569 88.7547 101.674 88.7547 102.999C88.7547 104.335 88.3048 105.444 87.4049 106.327C86.5159 107.2 85.41 107.636 84.0873 107.636C82.7754 107.636 81.6695 107.195 80.7696 106.311C79.8806 105.428 79.4361 104.324 79.4361 102.999C79.4361 101.674 79.886 100.569 80.7859 99.6861ZM85.7298 101.237C85.2961 100.785 84.7486 100.559 84.0873 100.559C83.4259 100.559 82.873 100.785 82.4284 101.237C81.9948 101.69 81.7779 102.277 81.7779 102.999C81.7779 103.72 81.9948 104.308 82.4284 104.76C82.873 105.212 83.4259 105.439 84.0873 105.439C84.7486 105.439 85.2961 105.212 85.7298 104.76C86.1743 104.308 86.3966 103.72 86.3966 102.999C86.3966 102.277 86.1743 101.69 85.7298 101.237Z" fill="black"/>
<path d="M90.3998 107.442V95H92.8363V107.442H90.3998Z" fill="black"/>
<path d="M101.26 98.555H103.586L103.57 107.442H101.244V106.247C100.561 107.173 99.6287 107.636 98.4469 107.636C97.2652 107.636 96.2894 107.205 95.5196 106.344C94.7498 105.471 94.3649 104.356 94.3649 102.999C94.3649 101.641 94.7498 100.532 95.5196 99.6699C96.3002 98.7974 97.2706 98.3611 98.4307 98.3611C99.6233 98.3611 100.567 98.8405 101.26 99.7992V98.555ZM98.9673 105.439C99.6287 105.439 100.176 105.212 100.61 104.76C101.044 104.308 101.26 103.72 101.26 102.999C101.26 102.277 101.044 101.69 100.61 101.237C100.176 100.785 99.6287 100.559 98.9673 100.559C98.306 100.559 97.7639 100.785 97.341 101.237C96.9182 101.69 96.7068 102.277 96.7068 102.999C96.7068 103.72 96.9182 104.308 97.341 104.76C97.7747 105.212 98.3168 105.439 98.9673 105.439Z" fill="black"/>
<circle cx="2.91012" cy="36.9101" r="2.91012" fill="#EF4444"/>
<circle cx="12.5" cy="78.5" r="1.5" fill="#EFBF44"/>
<circle cx="175.91" cy="124.91" r="2.91012" fill="#CDF083"/>
<circle cx="100" cy="147" r="2" fill="#F1D5FF"/>
<circle cx="99.1" cy="3.1" r="3.1" fill="#CF9CE7"/>
<circle cx="23.9401" cy="119.94" r="1.94008" fill="#408FE7"/>
<circle cx="193.94" cy="95.9401" r="1.94008" fill="#40E7AB"/>
<circle cx="182.94" cy="37.9401" r="1.94008" fill="#FDCA06"/>
<g opacity="0.5" filter="url(#filter0_d)">
<rect x="48" y="27" width="100" height="95" rx="15" fill="url(#paint0_linear)" shape-rendering="crispEdges"/>
</g>
<mask id="mask0" mask-type="alpha" maskUnits="userSpaceOnUse" x="77" y="43" width="43" height="44">
<path d="M111.416 70.1512C116.718 64.7096 119.988 57.2557 119.988 49.0336C119.988 48.0462 119.988 47.5525 119.918 47.1401C119.565 45.0559 117.933 43.4232 115.849 43.0699C115.437 43 114.944 43 113.957 43H89.4072C83.6799 43 80.8163 43 79.037 44.78C77.2578 46.5601 77.2578 49.4432 77.2578 55.2095C77.2578 57.2794 77.2578 58.3144 77.8965 58.9534C78.5352 59.5924 79.5632 59.5924 81.6191 59.5924H85.8294C80.5272 65.034 77.2578 72.4878 77.2578 80.71C77.2578 81.6973 77.2578 82.191 77.3277 82.6035C77.6808 84.6876 79.3128 86.3204 81.396 86.6736C81.8083 86.7436 82.3017 86.7436 83.2887 86.7436H107.838C113.566 86.7436 116.429 86.7436 118.208 84.9635C119.988 83.1835 119.988 80.3003 119.988 74.5341C119.988 72.4641 119.988 71.4292 119.349 70.7902C118.71 70.1512 117.682 70.1512 115.626 70.1512H111.416Z" fill="#FF9901"/>
</mask>
<g mask="url(#mask0)">
<path d="M111.416 70.1512C116.718 64.7096 119.988 57.2557 119.988 49.0336V49.0336C119.988 48.0497 119.988 47.5577 119.918 47.1467C119.566 45.0582 117.93 43.4219 115.841 43.0694C115.43 43 114.938 43 113.954 43H81.2375C79.3614 43 78.4234 43 77.8406 43.5828C77.2578 44.1656 77.2578 45.1036 77.2578 46.9797V55.6127C77.2578 57.4888 77.2578 58.4268 77.8406 59.0096C78.4234 59.5924 79.3614 59.5924 81.2375 59.5924H85.8294C80.5272 65.034 77.2578 72.4878 77.2578 80.71V80.71C77.2578 81.6939 77.2578 82.1858 77.3272 82.5969C77.6797 84.6854 79.316 86.3217 81.4045 86.6742C81.8155 86.7436 82.3075 86.7436 83.2914 86.7436H116.008C117.884 86.7436 118.822 86.7436 119.405 86.1608C119.988 85.5779 119.988 84.6399 119.988 82.7639V74.1308C119.988 72.2548 119.988 71.3168 119.405 70.734C118.822 70.1512 117.884 70.1512 116.008 70.1512H111.416Z" fill="url(#paint1_linear)"/>
<g style="mix-blend-mode:screen" filter="url(#filter1_f)">
<path fill-rule="evenodd" clip-rule="evenodd" d="M119.987 48.3333C119.91 56.4393 116.656 63.7807 111.417 69.1575H111.6L111.599 69.1584C107.488 73.5709 101.871 77.0526 97.1467 79.9816C95.4109 81.0577 93.7955 82.0591 92.4192 83.0047C93.4252 82.4987 94.6472 81.8733 96.0055 81.1408C97.1331 80.4173 98.3007 79.7227 99.4938 79.0131C103.427 76.6735 107.637 74.1696 111.598 69.9183C111.736 69.7793 111.884 69.638 112.035 69.4978C116.972 64.1203 119.988 56.9317 119.988 49.0342C119.988 48.7671 119.988 48.5362 119.987 48.3333ZM119.988 81.7702C119.988 83.6462 119.988 84.5842 119.405 85.167C118.823 85.7499 117.885 85.7499 116.009 85.7499H83.2919C82.308 85.7499 81.816 85.7499 81.405 85.6805C79.3165 85.328 77.6802 83.6917 77.3277 81.6032C77.2771 81.3037 77.2634 80.9614 77.2597 80.4172C77.2588 80.5149 77.2583 80.6127 77.2583 80.7106C77.2583 81.6945 77.2583 82.1865 77.3277 82.5975C77.6802 84.686 79.3165 86.3223 81.405 86.6748C81.816 86.7442 82.308 86.7442 83.2919 86.7442H116.009C117.885 86.7442 118.823 86.7442 119.405 86.1614C119.988 85.5786 119.988 84.6406 119.988 82.7645V81.7702ZM101.399 48.4173C102.163 48.048 102.897 47.7026 103.592 47.3755C104.047 47.1612 104.486 46.9547 104.905 46.7545C103.371 47.7625 101.751 48.6809 100.082 49.6272C96.1008 51.8845 91.84 54.3004 87.791 58.4684C83.058 63.9502 82.6402 63.6163 83.9336 61.7326C84.3833 61.1741 84.8525 60.6322 85.3401 60.1077C85.5278 59.9369 85.7105 59.7631 85.8797 59.5929C89.8412 55.3416 94.0509 52.8376 97.9843 50.4981C99.1515 49.8038 100.294 49.124 101.399 48.4173ZM85.7198 58.5987H81.238C79.3619 58.5987 78.4239 58.5987 77.8411 58.0159C77.2583 57.4331 77.2583 56.4951 77.2583 54.619V55.6134C77.2583 57.4894 77.2583 58.4274 77.8411 59.0102C78.4239 59.593 79.3619 59.593 81.238 59.593H84.7551L84.7552 59.5929C85.0734 59.2527 85.3951 58.9215 85.7198 58.5987Z" fill="#FFB800"/>
</g>
<g style="mix-blend-mode:screen" filter="url(#filter2_f)">
<path d="M113.197 68.1629C112.519 69.031 111.76 69.8607 110.992 70.6483H116.013C117.887 70.6483 118.823 70.6483 119.406 71.2307C119.988 71.8131 119.988 72.7504 119.988 74.625L119.988 72.1396C119.988 70.2649 119.988 69.3276 119.406 68.7453C118.823 68.1629 117.887 68.1629 116.013 68.1629H113.197Z" fill="#FFF5DB"/>
<path d="M77.2766 80.128C77.549 72.3339 80.7288 64.7923 85.7981 59.5899L83.5006 59.6288C79.4912 64.7587 77.2578 71.6896 77.2578 78.7217C77.2578 79.3593 77.2578 79.791 77.2766 80.128Z" fill="#FFF5DB"/>
<path d="M119.988 47.0453C119.988 47.4065 119.981 47.7663 119.969 48.1244C119.959 47.9396 119.943 47.7833 119.918 47.6373C119.565 45.5531 117.933 43.9203 115.849 43.5671C115.437 43.4971 114.944 43.4971 113.957 43.4971H81.2327C79.3589 43.4971 78.422 43.4971 77.8399 44.0795C77.2723 44.6474 77.2582 45.5527 77.2578 47.3355V44.9884C77.2578 43.1138 77.2578 42.1765 77.8399 41.5941C78.422 41.0117 79.3589 41.0117 81.2327 41.0117H113.957C114.944 41.0117 115.437 41.0117 115.849 41.0816C117.933 41.4349 119.565 43.0677 119.918 45.1518C119.988 45.5643 119.988 46.0579 119.988 47.0453Z" fill="#FFF5DB"/>
</g>
<g style="mix-blend-mode:multiply">
<path d="M94.6479 82.0212C98.7884 79.5358 107.254 75.2899 113.28 68.1028L124.708 67.1086L126.447 87.9862L77.2578 89.229L94.6479 82.0212Z" fill="url(#paint2_radial)"/>
</g>
<g style="mix-blend-mode:multiply">
<path d="M102.334 47.9704C98.1938 50.4558 89.7308 54.8754 83.702 61.8888L72.2742 62.8829L70.5352 42.0053L115.998 40.7626L102.334 47.9704Z" fill="url(#paint3_radial)" fill-opacity="0.7"/>
</g>
<g style="mix-blend-mode:overlay" filter="url(#filter3_f)">
<path d="M86.2656 57.1075C80.8001 57.1075 76.5291 52.4972 76.5291 47.7748L90.1927 42.0583L126.96 45.2894C124.724 50.6745 119.014 62.727 119.014 60.341C119.014 57.3585 114.707 50.6015 107.254 50.6015C99.8015 50.6015 98.687 57.1075 86.2656 57.1075Z" fill="#FFD600"/>
</g>
<g style="mix-blend-mode:hue" filter="url(#filter4_f)">
<rect width="25.1985" height="64.8748" transform="matrix(0.753434 -0.657523 0.657183 0.753731 52.6797 54.1008)" fill="#E73361"/>
</g>
<g style="mix-blend-mode:overlay" filter="url(#filter5_f)">
<rect width="25.1985" height="54.6687" transform="matrix(0.753434 -0.657523 0.657183 0.753731 48.7048 79.4523)" fill="#E73361"/>
</g>
<g style="mix-blend-mode:overlay" filter="url(#filter6_f)">
<rect width="25.1985" height="54.6687" transform="matrix(0.753434 -0.657523 0.657183 0.753731 93.9189 39.1884)" fill="#FFC700"/>
</g>
<g style="mix-blend-mode:multiply" filter="url(#filter7_f)">
<path d="M87.0892 82.5181C80.3396 81.3539 78.6721 77.6611 78.6721 71.199L73.4255 82.5181L83.3627 91.4656L121.124 85.252C120.13 82.8495 116.106 78.0443 107.957 78.0443C97.7716 78.0443 94.8713 83.8603 87.0892 82.5181Z" fill="#F87103" fill-opacity="0.38"/>
</g>
</g>
<path d="M104.118 65.9259C104.071 65.9887 103.854 66.2559 103.684 66.4288L103.591 66.5231C102.29 67.9532 99.0533 70.1063 97.4116 70.7977C97.4116 70.8135 96.4359 71.2221 95.9713 71.2378H95.9093C95.1969 71.2378 94.5309 70.8292 94.1902 70.1691C94.0043 69.8077 93.834 68.7547 93.8185 68.739C93.6791 67.796 93.5862 66.3518 93.5862 64.7629C93.5862 63.097 93.6791 61.5883 93.8495 60.6611C93.8495 60.6454 94.0198 59.7967 94.1282 59.5138C94.2986 59.1052 94.6084 58.7595 94.9956 58.5394C95.3053 58.3823 95.6305 58.3037 95.9713 58.3037C96.3275 58.3194 96.9935 58.5567 97.2567 58.6652C98.9914 59.3567 102.306 61.6197 103.576 63.0027C103.793 63.2227 104.025 63.4899 104.087 63.5528C104.35 63.8985 104.489 64.3228 104.489 64.7802C104.489 65.1872 104.366 65.5958 104.118 65.9259" fill="white"/>
<path fill-rule="evenodd" clip-rule="evenodd" d="M108.154 96.2199C107.394 96.9798 107.394 98.2029 107.394 100.649V103.427C107.394 105.873 107.394 107.096 108.154 107.856C108.914 108.616 110.137 108.616 112.583 108.616H121.451C123.898 108.616 125.121 108.616 125.881 107.856C126.64 107.096 126.64 105.873 126.64 103.427V100.649C126.64 98.2029 126.64 96.9798 125.881 96.2199C125.121 95.46 123.898 95.46 121.451 95.46H112.583C110.137 95.46 108.914 95.46 108.154 96.2199ZM116.318 99.5797V98.0177H110.075V99.5797H112.373V106.057H114.008V99.5797H116.318ZM124.449 98.0177H122.723L120.779 104.116L118.858 98.0177H117.132L119.75 106.057H121.808L124.449 98.0177Z" fill="black"/>
<defs>
<filter id="filter0_d" x="48" y="27" width="101" height="97" filterUnits="userSpaceOnUse" color-interpolation-filters="sRGB">
<feFlood flood-opacity="0" result="BackgroundImageFix"/>
<feColorMatrix in="SourceAlpha" type="matrix" values="0 0 0 0 0 0 0 0 0 0 0 0 0 0 0 0 0 0 127 0" result="hardAlpha"/>
<feOffset dx="1" dy="2"/>
<feComposite in2="hardAlpha" operator="out"/>
<feColorMatrix type="matrix" values="0 0 0 0 0 0 0 0 0 0 0 0 0 0 0 0 0 0 0.25 0"/>
<feBlend mode="normal" in2="BackgroundImageFix" result="effect1_dropShadow"/>
<feBlend mode="normal" in="SourceGraphic" in2="effect1_dropShadow" result="shape"/>
</filter>
<filter id="filter1_f" x="76.0107" y="45.5069" width="45.2251" height="42.4849" filterUnits="userSpaceOnUse" color-interpolation-filters="sRGB">
<feFlood flood-opacity="0" result="BackgroundImageFix"/>
<feBlend mode="normal" in="SourceGraphic" in2="BackgroundImageFix" result="shape"/>
<feGaussianBlur stdDeviation="0.623794" result="effect1_foregroundBlur"/>
</filter>
<filter id="filter2_f" x="76.2629" y="40.0168" width="44.7197" height="41.1061" filterUnits="userSpaceOnUse" color-interpolation-filters="sRGB">
<feFlood flood-opacity="0" result="BackgroundImageFix"/>
<feBlend mode="normal" in="SourceGraphic" in2="BackgroundImageFix" result="shape"/>
<feGaussianBlur stdDeviation="0.497457" result="effect1_foregroundBlur"/>
</filter>
<filter id="filter3_f" x="66.5799" y="32.1092" width="70.3295" height="38.4898" filterUnits="userSpaceOnUse" color-interpolation-filters="sRGB">
<feFlood flood-opacity="0" result="BackgroundImageFix"/>
<feBlend mode="normal" in="SourceGraphic" in2="BackgroundImageFix" result="shape"/>
<feGaussianBlur stdDeviation="4.97457" result="effect1_foregroundBlur"/>
</filter>
<filter id="filter4_f" x="26.8119" y="11.6645" width="113.356" height="117.202" filterUnits="userSpaceOnUse" color-interpolation-filters="sRGB">
<feFlood flood-opacity="0" result="BackgroundImageFix"/>
<feBlend mode="normal" in="SourceGraphic" in2="BackgroundImageFix" result="shape"/>
<feGaussianBlur stdDeviation="12.9339" result="effect1_foregroundBlur"/>
</filter>
<filter id="filter5_f" x="22.8371" y="37.0159" width="106.648" height="109.51" filterUnits="userSpaceOnUse" color-interpolation-filters="sRGB">
<feFlood flood-opacity="0" result="BackgroundImageFix"/>
<feBlend mode="normal" in="SourceGraphic" in2="BackgroundImageFix" result="shape"/>
<feGaussianBlur stdDeviation="12.9339" result="effect1_foregroundBlur"/>
</filter>
<filter id="filter6_f" x="68.0512" y="-3.248" width="106.648" height="109.51" filterUnits="userSpaceOnUse" color-interpolation-filters="sRGB">
<feFlood flood-opacity="0" result="BackgroundImageFix"/>
<feBlend mode="normal" in="SourceGraphic" in2="BackgroundImageFix" result="shape"/>
<feGaussianBlur stdDeviation="12.9339" result="effect1_foregroundBlur"/>
</filter>
<filter id="filter7_f" x="70.9383" y="68.7117" width="52.673" height="25.2412" filterUnits="userSpaceOnUse" color-interpolation-filters="sRGB">
<feFlood flood-opacity="0" result="BackgroundImageFix"/>
<feBlend mode="normal" in="SourceGraphic" in2="BackgroundImageFix" result="shape"/>
<feGaussianBlur stdDeviation="1.24364" result="effect1_foregroundBlur"/>
</filter>
<linearGradient id="paint0_linear" x1="98" y1="27" x2="98" y2="122" gradientUnits="userSpaceOnUse">
<stop stop-color="#E0E0E0"/>
<stop offset="1" stop-color="#C4C4C4" stop-opacity="0.3"/>
</linearGradient>
<linearGradient id="paint1_linear" x1="83.6199" y1="43" x2="116.876" y2="84.7983" gradientUnits="userSpaceOnUse">
<stop stop-color="#F88F03"/>
<stop offset="1" stop-color="#F86A03"/>
</linearGradient>
<radialGradient id="paint2_radial" cx="0" cy="0" r="1" gradientUnits="userSpaceOnUse" gradientTransform="translate(109.057 71.0853) rotate(82.6769) scale(17.5411 27.7611)">
<stop stop-color="#FB3F39"/>
<stop offset="1" stop-color="#FB3F39" stop-opacity="0"/>
</radialGradient>
<radialGradient id="paint3_radial" cx="0" cy="0" r="1" gradientUnits="userSpaceOnUse" gradientTransform="translate(86.4347 60.8946) rotate(-101.763) scale(18.279 28.9296)">
<stop stop-color="#FB3F39"/>
<stop offset="1" stop-color="#FB3F39" stop-opacity="0"/>
</radialGradient>
</defs>
</svg>
