<svg width="196" height="149" viewBox="0 0 196 149" fill="none" xmlns="http://www.w3.org/2000/svg">
<path d="M73.0592 105.54H78.5939V107.915H70V105.654L75.4853 98.5386H70.2634V96.2777H78.5445L78.561 98.5386L73.0592 105.54Z" fill="white"/>
<path d="M80.9188 99.821C81.8298 98.9122 82.9438 98.4578 84.2609 98.4578C85.578 98.4578 86.692 98.9122 87.603 99.821C88.5249 100.73 88.9859 101.866 88.9859 103.229C88.9859 104.603 88.5304 105.745 87.6194 106.653C86.7194 107.551 85.5999 108 84.2609 108C82.9329 108 81.8133 107.546 80.9024 106.637C80.0024 105.728 79.5524 104.592 79.5524 103.229C79.5524 101.866 80.0079 100.73 80.9188 99.821ZM85.9237 101.417C85.4847 100.951 84.9304 100.719 84.2609 100.719C83.5914 100.719 83.0316 100.951 82.5816 101.417C82.1426 101.882 81.9231 102.486 81.9231 103.229C81.9231 103.971 82.1426 104.575 82.5816 105.041C83.0316 105.506 83.5914 105.739 84.2609 105.739C84.9304 105.739 85.4847 105.506 85.9237 105.041C86.3737 104.575 86.5987 103.971 86.5987 103.229C86.5987 102.486 86.3737 101.882 85.9237 101.417Z" fill="white"/>
<path d="M90.6513 107.801V95H93.1177V107.801H90.6513Z" fill="white"/>
<path d="M101.646 98.6573H104L103.984 107.801H101.629V106.57C100.938 107.523 99.9939 108 98.7976 108C97.6012 108 96.6134 107.557 95.8342 106.67C95.0549 105.772 94.6653 104.625 94.6653 103.229C94.6653 101.832 95.0549 100.691 95.8342 99.8043C96.6244 98.9066 97.6067 98.4578 98.7811 98.4578C99.9884 98.4578 100.943 98.951 101.646 99.9373V98.6573ZM99.3244 105.739C99.9939 105.739 100.548 105.506 100.987 105.041C101.426 104.575 101.646 103.971 101.646 103.229C101.646 102.486 101.426 101.882 100.987 101.417C100.548 100.951 99.9939 100.719 99.3244 100.719C98.6549 100.719 98.1061 100.951 97.6781 101.417C97.25 101.882 97.036 102.486 97.036 103.229C97.036 103.971 97.25 104.575 97.6781 105.041C98.1171 105.506 98.6659 105.739 99.3244 105.739Z" fill="white"/>
<path fill-rule="evenodd" clip-rule="evenodd" d="M107.914 95.9145C107 96.8289 107 98.3007 107 101.244V102.587C107 105.53 107 107.002 107.914 107.916C108.829 108.831 110.301 108.831 113.244 108.831H120.756C123.699 108.831 125.171 108.831 126.086 107.916C127 107.002 127 105.53 127 102.587V101.244C127 98.3007 127 96.8289 126.086 95.9145C125.171 95 123.699 95 120.756 95H113.244C110.301 95 108.829 95 107.914 95.9145ZM116.273 99.3315V97.6894H109.786V99.3315H112.174V106.142H113.873V99.3315H116.273ZM124.722 97.6894H122.928L120.909 104.101L118.913 97.6894H117.119L119.839 106.142H121.978L124.722 97.6894Z" fill="white"/>
<circle cx="2.91012" cy="36.9101" r="2.91012" fill="#EF4444"/>
<circle cx="12.5" cy="78.5" r="1.5" fill="#EFBF44"/>
<circle cx="175.91" cy="124.91" r="2.91012" fill="#CDF083"/>
<circle cx="100" cy="147" r="2" fill="#F1D5FF"/>
<circle cx="99.1" cy="3.1" r="3.1" fill="#CF9CE7"/>
<circle cx="23.9401" cy="119.94" r="1.94008" fill="#408FE7"/>
<circle cx="193.94" cy="95.9401" r="1.94008" fill="#40E7AB"/>
<circle cx="182.94" cy="37.9401" r="1.94008" fill="#FDCA06"/>
<g opacity="0.5" filter="url(#filter0_d)">
<rect x="48" y="27" width="100" height="95" rx="15" fill="#C4C4C4" fill-opacity="0.2" shape-rendering="crispEdges"/>
</g>
<mask id="mask0" mask-type="alpha" maskUnits="userSpaceOnUse" x="77" y="43" width="43" height="44">
<path d="M111.416 70.1512C116.718 64.7096 119.988 57.2557 119.988 49.0336C119.988 48.0462 119.988 47.5525 119.918 47.1401C119.565 45.0559 117.933 43.4232 115.849 43.0699C115.437 43 114.944 43 113.957 43H89.4072C83.6799 43 80.8163 43 79.037 44.78C77.2578 46.5601 77.2578 49.4432 77.2578 55.2095C77.2578 57.2794 77.2578 58.3144 77.8965 58.9534C78.5352 59.5924 79.5632 59.5924 81.6191 59.5924H85.8294C80.5272 65.034 77.2578 72.4878 77.2578 80.71C77.2578 81.6973 77.2578 82.191 77.3277 82.6035C77.6808 84.6876 79.3128 86.3204 81.396 86.6736C81.8083 86.7436 82.3017 86.7436 83.2887 86.7436H107.838C113.566 86.7436 116.429 86.7436 118.208 84.9635C119.988 83.1835 119.988 80.3003 119.988 74.5341C119.988 72.4641 119.988 71.4292 119.349 70.7902C118.71 70.1512 117.682 70.1512 115.626 70.1512H111.416Z" fill="#FF9901"/>
</mask>
<g mask="url(#mask0)">
<path d="M111.416 70.1512C116.718 64.7096 119.988 57.2557 119.988 49.0336V49.0336C119.988 48.0497 119.988 47.5577 119.918 47.1467C119.566 45.0582 117.93 43.4219 115.841 43.0694C115.43 43 114.938 43 113.954 43H81.2375C79.3614 43 78.4234 43 77.8406 43.5828C77.2578 44.1656 77.2578 45.1036 77.2578 46.9797V55.6127C77.2578 57.4888 77.2578 58.4268 77.8406 59.0096C78.4234 59.5924 79.3614 59.5924 81.2375 59.5924H85.8294C80.5272 65.034 77.2578 72.4878 77.2578 80.71V80.71C77.2578 81.6939 77.2578 82.1858 77.3272 82.5969C77.6797 84.6854 79.316 86.3217 81.4045 86.6742C81.8155 86.7436 82.3075 86.7436 83.2914 86.7436H116.008C117.884 86.7436 118.822 86.7436 119.405 86.1608C119.988 85.5779 119.988 84.6399 119.988 82.7639V74.1308C119.988 72.2548 119.988 71.3168 119.405 70.734C118.822 70.1512 117.884 70.1512 116.008 70.1512H111.416Z" fill="url(#paint0_linear)"/>
<g style="mix-blend-mode:screen" filter="url(#filter1_f)">
<path fill-rule="evenodd" clip-rule="evenodd" d="M119.987 48.3333C119.91 56.4393 116.656 63.7807 111.417 69.1575H111.6L111.599 69.1584C107.488 73.5709 101.871 77.0526 97.1467 79.9816C95.4109 81.0577 93.7955 82.0591 92.4192 83.0047C93.4252 82.4987 94.6472 81.8733 96.0055 81.1408C97.1331 80.4173 98.3007 79.7227 99.4938 79.0131C103.427 76.6735 107.637 74.1696 111.598 69.9183C111.736 69.7793 111.884 69.638 112.035 69.4978C116.972 64.1203 119.988 56.9317 119.988 49.0342C119.988 48.7671 119.988 48.5362 119.987 48.3333ZM119.988 81.7702C119.988 83.6462 119.988 84.5842 119.405 85.167C118.823 85.7499 117.885 85.7499 116.009 85.7499H83.2919C82.308 85.7499 81.816 85.7499 81.405 85.6805C79.3165 85.328 77.6802 83.6917 77.3277 81.6032C77.2771 81.3037 77.2634 80.9614 77.2597 80.4172C77.2588 80.5149 77.2583 80.6127 77.2583 80.7106C77.2583 81.6945 77.2583 82.1865 77.3277 82.5975C77.6802 84.686 79.3165 86.3223 81.405 86.6748C81.816 86.7442 82.308 86.7442 83.2919 86.7442H116.009C117.885 86.7442 118.823 86.7442 119.405 86.1614C119.988 85.5786 119.988 84.6406 119.988 82.7645V81.7702ZM101.399 48.4173C102.163 48.048 102.897 47.7026 103.592 47.3755C104.047 47.1612 104.486 46.9547 104.905 46.7545C103.371 47.7625 101.751 48.6809 100.082 49.6272C96.1008 51.8845 91.84 54.3004 87.791 58.4684C83.058 63.9502 82.6402 63.6163 83.9336 61.7326C84.3833 61.1741 84.8525 60.6322 85.3401 60.1077C85.5278 59.9369 85.7105 59.7631 85.8797 59.5929C89.8412 55.3416 94.0509 52.8376 97.9843 50.4981C99.1515 49.8038 100.294 49.124 101.399 48.4173ZM85.7198 58.5987H81.238C79.3619 58.5987 78.4239 58.5987 77.8411 58.0159C77.2583 57.4331 77.2583 56.4951 77.2583 54.619V55.6134C77.2583 57.4894 77.2583 58.4274 77.8411 59.0102C78.4239 59.593 79.3619 59.593 81.238 59.593H84.7551L84.7552 59.5929C85.0734 59.2527 85.3951 58.9215 85.7198 58.5987Z" fill="#FFB800"/>
</g>
<g style="mix-blend-mode:screen" filter="url(#filter2_f)">
<path d="M113.197 68.1629C112.519 69.031 111.76 69.8607 110.992 70.6483H116.013C117.887 70.6483 118.823 70.6483 119.406 71.2307C119.988 71.8131 119.988 72.7504 119.988 74.625L119.988 72.1396C119.988 70.2649 119.988 69.3276 119.406 68.7453C118.823 68.1629 117.887 68.1629 116.013 68.1629H113.197Z" fill="#FFF5DB"/>
<path d="M77.2766 80.128C77.549 72.3339 80.7288 64.7923 85.7981 59.5899L83.5006 59.6288C79.4912 64.7587 77.2578 71.6896 77.2578 78.7217C77.2578 79.3593 77.2578 79.791 77.2766 80.128Z" fill="#FFF5DB"/>
<path d="M119.988 47.0453C119.988 47.4065 119.981 47.7663 119.969 48.1244C119.959 47.9396 119.943 47.7833 119.918 47.6373C119.565 45.5531 117.933 43.9203 115.849 43.5671C115.437 43.4971 114.944 43.4971 113.957 43.4971H81.2327C79.3589 43.4971 78.422 43.4971 77.8399 44.0795C77.2723 44.6474 77.2582 45.5527 77.2578 47.3355V44.9884C77.2578 43.1138 77.2578 42.1765 77.8399 41.5941C78.422 41.0117 79.3589 41.0117 81.2327 41.0117H113.957C114.944 41.0117 115.437 41.0117 115.849 41.0816C117.933 41.4349 119.565 43.0677 119.918 45.1518C119.988 45.5643 119.988 46.0579 119.988 47.0453Z" fill="#FFF5DB"/>
</g>
<g style="mix-blend-mode:multiply">
<path d="M94.6479 82.0212C98.7884 79.5358 107.254 75.2899 113.28 68.1028L124.708 67.1086L126.447 87.9862L77.2578 89.229L94.6479 82.0212Z" fill="url(#paint1_radial)"/>
</g>
<g style="mix-blend-mode:multiply">
<path d="M102.334 47.9704C98.1938 50.4558 89.7308 54.8754 83.702 61.8888L72.2742 62.8829L70.5352 42.0053L115.998 40.7626L102.334 47.9704Z" fill="url(#paint2_radial)" fill-opacity="0.7"/>
</g>
<g style="mix-blend-mode:overlay" filter="url(#filter3_f)">
<path d="M86.2656 57.1075C80.8001 57.1075 76.5291 52.4972 76.5291 47.7748L90.1927 42.0583L126.96 45.2894C124.724 50.6745 119.014 62.727 119.014 60.341C119.014 57.3585 114.707 50.6015 107.254 50.6015C99.8015 50.6015 98.687 57.1075 86.2656 57.1075Z" fill="#FFD600"/>
</g>
<g style="mix-blend-mode:hue" filter="url(#filter4_f)">
<rect width="25.1985" height="64.8748" transform="matrix(0.753434 -0.657523 0.657183 0.753731 52.6797 54.1008)" fill="#E73361"/>
</g>
<g style="mix-blend-mode:overlay" filter="url(#filter5_f)">
<rect width="25.1985" height="54.6687" transform="matrix(0.753434 -0.657523 0.657183 0.753731 48.7048 79.4523)" fill="#E73361"/>
</g>
<g style="mix-blend-mode:overlay" filter="url(#filter6_f)">
<rect width="25.1985" height="54.6687" transform="matrix(0.753434 -0.657523 0.657183 0.753731 93.9189 39.1884)" fill="#FFC700"/>
</g>
<g style="mix-blend-mode:multiply" filter="url(#filter7_f)">
<path d="M87.0892 82.5181C80.3396 81.3539 78.6721 77.6611 78.6721 71.199L73.4255 82.5181L83.3627 91.4656L121.124 85.252C120.13 82.8495 116.106 78.0443 107.957 78.0443C97.7716 78.0443 94.8713 83.8603 87.0892 82.5181Z" fill="#F87103" fill-opacity="0.38"/>
</g>
</g>
<path d="M104.118 65.9259C104.071 65.9887 103.854 66.2559 103.684 66.4288L103.591 66.5231C102.29 67.9532 99.0533 70.1063 97.4116 70.7977C97.4116 70.8135 96.4359 71.2221 95.9713 71.2378H95.9093C95.1969 71.2378 94.5309 70.8292 94.1902 70.1691C94.0043 69.8077 93.834 68.7547 93.8185 68.739C93.6791 67.796 93.5862 66.3518 93.5862 64.7629C93.5862 63.097 93.6791 61.5883 93.8495 60.6611C93.8495 60.6454 94.0198 59.7967 94.1282 59.5138C94.2986 59.1052 94.6084 58.7595 94.9956 58.5394C95.3053 58.3823 95.6305 58.3037 95.9713 58.3037C96.3275 58.3194 96.9935 58.5567 97.2567 58.6652C98.9914 59.3567 102.306 61.6197 103.576 63.0027C103.793 63.2227 104.025 63.4899 104.087 63.5528C104.35 63.8985 104.489 64.3228 104.489 64.7802C104.489 65.1872 104.366 65.5958 104.118 65.9259" fill="white"/>
<defs>
<filter id="filter0_d" x="48" y="27" width="101" height="97" filterUnits="userSpaceOnUse" color-interpolation-filters="sRGB">
<feFlood flood-opacity="0" result="BackgroundImageFix"/>
<feColorMatrix in="SourceAlpha" type="matrix" values="0 0 0 0 0 0 0 0 0 0 0 0 0 0 0 0 0 0 127 0" result="hardAlpha"/>
<feOffset dx="1" dy="2"/>
<feComposite in2="hardAlpha" operator="out"/>
<feColorMatrix type="matrix" values="0 0 0 0 0 0 0 0 0 0 0 0 0 0 0 0 0 0 0.25 0"/>
<feBlend mode="normal" in2="BackgroundImageFix" result="effect1_dropShadow"/>
<feBlend mode="normal" in="SourceGraphic" in2="effect1_dropShadow" result="shape"/>
</filter>
<filter id="filter1_f" x="76.0107" y="45.5069" width="45.2251" height="42.4849" filterUnits="userSpaceOnUse" color-interpolation-filters="sRGB">
<feFlood flood-opacity="0" result="BackgroundImageFix"/>
<feBlend mode="normal" in="SourceGraphic" in2="BackgroundImageFix" result="shape"/>
<feGaussianBlur stdDeviation="0.623794" result="effect1_foregroundBlur"/>
</filter>
<filter id="filter2_f" x="76.2629" y="40.0168" width="44.7197" height="41.1061" filterUnits="userSpaceOnUse" color-interpolation-filters="sRGB">
<feFlood flood-opacity="0" result="BackgroundImageFix"/>
<feBlend mode="normal" in="SourceGraphic" in2="BackgroundImageFix" result="shape"/>
<feGaussianBlur stdDeviation="0.497457" result="effect1_foregroundBlur"/>
</filter>
<filter id="filter3_f" x="66.5799" y="32.1092" width="70.3295" height="38.4898" filterUnits="userSpaceOnUse" color-interpolation-filters="sRGB">
<feFlood flood-opacity="0" result="BackgroundImageFix"/>
<feBlend mode="normal" in="SourceGraphic" in2="BackgroundImageFix" result="shape"/>
<feGaussianBlur stdDeviation="4.97457" result="effect1_foregroundBlur"/>
</filter>
<filter id="filter4_f" x="26.8119" y="11.6645" width="113.356" height="117.202" filterUnits="userSpaceOnUse" color-interpolation-filters="sRGB">
<feFlood flood-opacity="0" result="BackgroundImageFix"/>
<feBlend mode="normal" in="SourceGraphic" in2="BackgroundImageFix" result="shape"/>
<feGaussianBlur stdDeviation="12.9339" result="effect1_foregroundBlur"/>
</filter>
<filter id="filter5_f" x="22.8371" y="37.0159" width="106.648" height="109.51" filterUnits="userSpaceOnUse" color-interpolation-filters="sRGB">
<feFlood flood-opacity="0" result="BackgroundImageFix"/>
<feBlend mode="normal" in="SourceGraphic" in2="BackgroundImageFix" result="shape"/>
<feGaussianBlur stdDeviation="12.9339" result="effect1_foregroundBlur"/>
</filter>
<filter id="filter6_f" x="68.0512" y="-3.248" width="106.648" height="109.51" filterUnits="userSpaceOnUse" color-interpolation-filters="sRGB">
<feFlood flood-opacity="0" result="BackgroundImageFix"/>
<feBlend mode="normal" in="SourceGraphic" in2="BackgroundImageFix" result="shape"/>
<feGaussianBlur stdDeviation="12.9339" result="effect1_foregroundBlur"/>
</filter>
<filter id="filter7_f" x="70.9383" y="68.7117" width="52.673" height="25.2412" filterUnits="userSpaceOnUse" color-interpolation-filters="sRGB">
<feFlood flood-opacity="0" result="BackgroundImageFix"/>
<feBlend mode="normal" in="SourceGraphic" in2="BackgroundImageFix" result="shape"/>
<feGaussianBlur stdDeviation="1.24364" result="effect1_foregroundBlur"/>
</filter>
<linearGradient id="paint0_linear" x1="83.6199" y1="43" x2="116.876" y2="84.7983" gradientUnits="userSpaceOnUse">
<stop stop-color="#F88F03"/>
<stop offset="1" stop-color="#F86A03"/>
</linearGradient>
<radialGradient id="paint1_radial" cx="0" cy="0" r="1" gradientUnits="userSpaceOnUse" gradientTransform="translate(109.057 71.0853) rotate(82.6769) scale(17.5411 27.7611)">
<stop stop-color="#FB3F39"/>
<stop offset="1" stop-color="#FB3F39" stop-opacity="0"/>
</radialGradient>
<radialGradient id="paint2_radial" cx="0" cy="0" r="1" gradientUnits="userSpaceOnUse" gradientTransform="translate(86.4347 60.8946) rotate(-101.763) scale(18.279 28.9296)">
<stop stop-color="#FB3F39"/>
<stop offset="1" stop-color="#FB3F39" stop-opacity="0"/>
</radialGradient>
</defs>
</svg>
