<svg width="96" height="22" viewBox="0 0 96 22" fill="none" xmlns="http://www.w3.org/2000/svg">
<mask id="mask0" mask-type="alpha" maskUnits="userSpaceOnUse" x="0" y="0" width="21" height="22">
<path d="M16.5623 13.1648C19.1332 10.5263 20.7185 6.91218 20.7185 2.92551C20.7185 2.44677 20.7185 2.20739 20.6846 2.00741C20.5134 0.996869 19.722 0.205194 18.712 0.0338979C18.5121 0 18.2728 0 17.7943 0H5.89087C3.11389 0 1.7254 0 0.862698 0.863092C0 1.72618 0 3.12413 0 5.92002C0 6.92367 0 7.4255 0.309686 7.73533C0.619373 8.04516 1.11781 8.04516 2.11467 8.04516H4.15612C1.58522 10.6836 0 14.2978 0 18.2844C0 18.7632 0 19.0026 0.0338825 19.2025C0.205101 20.2131 0.996414 21.0048 2.0065 21.1761C2.20638 21.21 2.44565 21.21 2.92418 21.21H14.8276C17.6046 21.21 18.9931 21.21 19.8558 20.3469C20.7185 19.4838 20.7185 18.0858 20.7185 15.2899C20.7185 14.2863 20.7185 13.7845 20.4088 13.4746C20.0991 13.1648 19.6007 13.1648 18.6038 13.1648H16.5623Z" fill="#FF9901"/>
</mask>
<g mask="url(#mask0)">
<path d="M16.5623 13.1648C19.1332 10.5263 20.7185 6.91218 20.7185 2.92551V2.92551C20.7185 2.44844 20.7185 2.2099 20.6848 2.0106C20.5139 0.997939 19.7205 0.204553 18.7079 0.0336375C18.5086 0 18.27 0 17.7929 0H1.92962C1.01999 0 0.565171 0 0.282586 0.282586C0 0.565171 0 1.01999 0 1.92962V6.11554C0 7.02517 0 7.47998 0.282586 7.76257C0.565171 8.04516 1.01999 8.04516 1.92962 8.04516H4.15612C1.58522 10.6836 0 14.2978 0 18.2844V18.2844C0 18.7615 0 19.0001 0.0336375 19.1994C0.204553 20.212 0.997939 21.0054 2.0106 21.1763C2.2099 21.21 2.44844 21.21 2.92551 21.21H18.7888C19.6985 21.21 20.1533 21.21 20.4359 20.9274C20.7185 20.6448 20.7185 20.19 20.7185 19.2803V15.0944C20.7185 14.1848 20.7185 13.73 20.4359 13.4474C20.1533 13.1648 19.6985 13.1648 18.7888 13.1648H16.5623Z" fill="url(#paint0_linear)"/>
<g style="mix-blend-mode:screen" filter="url(#filter0_f)">
<path fill-rule="evenodd" clip-rule="evenodd" d="M20.7178 2.58613C20.6806 6.51645 19.1026 10.0761 16.5623 12.6831H16.6508L16.6506 12.6833C14.6569 14.8228 11.9338 16.511 9.64291 17.9312L9.64289 17.9312C8.8013 18.453 8.01804 18.9385 7.35072 19.397C7.8393 19.1513 8.43297 18.8474 9.09291 18.4915C9.63875 18.1413 10.2039 17.8051 10.7814 17.4617C12.6886 16.3273 14.7297 15.1132 16.6506 13.0519C16.7178 12.9842 16.7895 12.9153 16.8633 12.8471C19.2564 10.2398 20.7185 6.75471 20.7185 2.92603C20.7185 2.79647 20.7185 2.6845 20.7178 2.58613ZM20.7185 18.7986C20.7185 19.7083 20.7185 20.1631 20.4359 20.4457C20.1533 20.7283 19.6985 20.7283 18.7888 20.7283H2.92551C2.44844 20.7283 2.2099 20.7283 2.0106 20.6946C0.997939 20.5237 0.204553 19.7303 0.0336375 18.7177C0.0091354 18.5725 0.00248103 18.4065 0.000673807 18.1427C0.00022494 18.19 0 18.2375 0 18.285C0 18.762 0 19.0006 0.0336375 19.1999C0.204553 20.2125 0.997939 21.0059 2.0106 21.1768C2.2099 21.2105 2.44844 21.2105 2.92551 21.2105H18.7888C19.6985 21.2105 20.1533 21.2105 20.4359 20.9279C20.7185 20.6453 20.7185 20.1905 20.7185 19.2809V18.7986ZM11.7076 2.62553C12.0771 2.44693 12.432 2.27987 12.768 2.12167C12.9888 2.01773 13.2015 1.91761 13.4049 1.82056C12.6609 2.30929 11.8755 2.75461 11.0662 3.21345C9.13592 4.30793 7.06998 5.47932 5.10675 7.50029C2.81428 10.1554 2.60971 9.9967 3.23441 9.08587C3.45286 8.81447 3.68078 8.55111 3.91764 8.29627C4.00904 8.21315 4.09798 8.12854 4.18032 8.04571C6.10115 5.98437 8.14231 4.77028 10.0495 3.6359C10.6162 3.29879 11.1712 2.96871 11.7076 2.62553ZM4.10297 7.56346H1.92962C1.01999 7.56346 0.565171 7.56346 0.282586 7.28088C0 6.99829 0 6.54348 0 5.63385V6.11606C0 7.02569 0 7.48051 0.282586 7.76309C0.565171 8.04568 1.01999 8.04568 1.92962 8.04568H3.63513C3.78946 7.8807 3.9455 7.72002 4.10297 7.56346Z" fill="#FFB800"/>
</g>
<g style="mix-blend-mode:screen" filter="url(#filter1_f)">
<path d="M17.4261 12.2007C17.0971 12.6216 16.729 13.0239 16.3569 13.4058H18.7912C19.6997 13.4058 20.154 13.4058 20.4362 13.6882C20.7185 13.9705 20.7185 14.425 20.7185 15.334L20.7185 14.1289C20.7185 13.2199 20.7185 12.7654 20.4362 12.4831C20.154 12.2007 19.6997 12.2007 18.7912 12.2007H17.4261Z" fill="#FFF5DB"/>
<path d="M0.0091244 18.0022C0.14119 14.2231 1.68299 10.5664 4.14094 8.04388L3.02696 8.06276C1.08292 10.5501 0 13.9107 0 17.3203C0 17.6295 0 17.8388 0.0091244 18.0022Z" fill="#FFF5DB"/>
<path d="M20.7185 1.9614C20.7185 2.13655 20.7154 2.31097 20.7093 2.48463C20.7043 2.39502 20.6966 2.31925 20.6846 2.24841C20.5134 1.23787 19.722 0.446194 18.712 0.274898C18.5121 0.241 18.2728 0.241 17.7943 0.241H1.92729C1.01876 0.241 0.564488 0.241 0.282242 0.523375C0.00702549 0.798717 0.00017073 1.23769 0 2.1021V0.964068C0 0.0551151 0 -0.399361 0.282246 -0.681736C0.564493 -0.964111 1.01876 -0.964111 1.9273 -0.964111H17.7943C18.2728 -0.964111 18.5121 -0.964111 18.712 -0.930213C19.722 -0.758917 20.5134 0.0327576 20.6846 1.0433C20.7185 1.24328 20.7185 1.48265 20.7185 1.9614Z" fill="#FFF5DB"/>
</g>
<g style="mix-blend-mode:multiply">
<path d="M8.43193 18.9204C10.4395 17.7153 14.5444 15.6565 17.4661 12.1717L23.0071 11.6897L23.8503 21.8126L0 22.4152L8.43193 18.9204Z" fill="url(#paint1_radial)"/>
</g>
<g style="mix-blend-mode:multiply">
<path d="M12.1591 2.41032C10.1515 3.61543 6.04811 5.75836 3.12492 9.15895L-2.41609 9.64099L-3.25929 -0.481944L18.7842 -1.0845L12.1591 2.41032Z" fill="url(#paint2_radial)" fill-opacity="0.7"/>
</g>
<g style="mix-blend-mode:overlay" filter="url(#filter2_f)">
<path d="M4.36742 5.24819C1.71739 5.24819 -0.353516 3.01276 -0.353516 0.723049L6.27157 -2.04871L24.0991 -0.482062C23.015 2.12901 20.2463 7.97293 20.2463 6.81603C20.2463 5.36989 18.158 2.09363 14.5443 2.09363C10.9306 2.09363 10.3902 5.24819 4.36742 5.24819Z" fill="#FFD600"/>
</g>
<g style="mix-blend-mode:hue" filter="url(#filter3_f)">
<rect width="12.218" height="31.4559" transform="matrix(0.753434 -0.657523 0.657183 0.753731 -11.9172 5.38257)" fill="#E73361"/>
</g>
<g style="mix-blend-mode:overlay" filter="url(#filter4_f)">
<rect width="12.218" height="26.5072" transform="matrix(0.753434 -0.657523 0.657183 0.753731 -13.8445 17.6747)" fill="#E73361"/>
</g>
<g style="mix-blend-mode:overlay" filter="url(#filter5_f)">
<rect width="12.218" height="26.5072" transform="matrix(0.753434 -0.657523 0.657183 0.753731 8.07837 -1.84827)" fill="#FFC700"/>
</g>
<g style="mix-blend-mode:multiply" filter="url(#filter6_f)">
<path d="M4.76693 19.1614C1.49428 18.5969 0.685743 16.8064 0.685743 13.6731L-1.85815 19.1614L2.96009 23.4998L21.2694 20.487C20.7876 19.3221 18.8362 16.9922 14.8853 16.9922C9.94655 16.9922 8.54024 19.8122 4.76693 19.1614Z" fill="#F87103" fill-opacity="0.38"/>
</g>
</g>
<path d="M13.0237 11.1163C13.0012 11.1468 12.896 11.2763 12.8134 11.3601L12.7684 11.4058C12.1376 12.0993 10.5681 13.1432 9.77208 13.4785C9.77208 13.4861 9.29898 13.6843 9.0737 13.6919H9.04366C8.69822 13.6919 8.37532 13.4938 8.21011 13.1737C8.11999 12.9985 8.03739 12.4879 8.02988 12.4803C7.96229 12.0231 7.91724 11.3228 7.91724 10.5524C7.91724 9.74467 7.96229 9.01314 8.0449 8.56355C8.0449 8.55593 8.1275 8.14444 8.18007 8.00728C8.26267 7.80916 8.41286 7.64152 8.6006 7.53483C8.75079 7.45863 8.90849 7.42053 9.0737 7.42053C9.24642 7.42815 9.56932 7.54322 9.69698 7.59579C10.538 7.93108 12.1451 9.02838 12.7609 9.69895C12.866 9.80563 12.9786 9.93517 13.0087 9.96565C13.1363 10.1333 13.2039 10.339 13.2039 10.5608C13.2039 10.7581 13.1438 10.9563 13.0237 11.1163" fill="white"/>
<path d="M33.2995 14.8826H39.316V17.4229H29.9741V15.0046L35.9369 7.39393H30.2605V4.9756H39.2623L39.2802 7.39393L33.2995 14.8826Z" fill="black"/>
<path d="M41.8433 8.76563C42.8335 7.79356 44.0445 7.30752 45.4762 7.30752C46.9079 7.30752 48.1189 7.79356 49.1092 8.76563C50.1114 9.73771 50.6125 10.9528 50.6125 12.4109C50.6125 13.8809 50.1173 15.1019 49.1271 16.074C48.1487 17.0342 46.9318 17.5143 45.4762 17.5143C44.0326 17.5143 42.8156 17.0283 41.8254 16.0562C40.847 15.0841 40.3579 13.869 40.3579 12.4109C40.3579 10.9528 40.853 9.73771 41.8433 8.76563ZM47.2837 10.4727C46.8065 9.9748 46.204 9.72585 45.4762 9.72585C44.7484 9.72585 44.14 9.9748 43.6508 10.4727C43.1736 10.9706 42.9349 11.6167 42.9349 12.4109C42.9349 13.2052 43.1736 13.8513 43.6508 14.3491C44.14 14.847 44.7484 15.096 45.4762 15.096C46.204 15.096 46.8065 14.847 47.2837 14.3491C47.7729 13.8513 48.0175 13.2052 48.0175 12.4109C48.0175 11.6167 47.7729 10.9706 47.2837 10.4727Z" fill="black"/>
<path d="M52.4228 17.3009V3.60889H55.1039V17.3009H52.4228Z" fill="black"/>
<path d="M64.3741 7.5209H66.9333L66.9154 17.3009H64.3562V15.9851C63.6046 17.0046 62.5785 17.5143 61.2781 17.5143C59.9776 17.5143 58.9038 17.0401 58.0567 16.0918C57.2097 15.1315 56.7861 13.9046 56.7861 12.4109C56.7861 10.9172 57.2097 9.69622 58.0567 8.74785C58.9158 7.78763 59.9836 7.30752 61.2602 7.30752C62.5726 7.30752 63.6106 7.83505 64.3741 8.89011V7.5209ZM61.8508 15.096C62.5785 15.096 63.181 14.847 63.6583 14.3491C64.1355 13.8513 64.3741 13.2052 64.3741 12.4109C64.3741 11.6167 64.1355 10.9706 63.6583 10.4727C63.181 9.9748 62.5785 9.72585 61.8508 9.72585C61.123 9.72585 60.5264 9.9748 60.0611 10.4727C59.5958 10.9706 59.3632 11.6167 59.3632 12.4109C59.3632 13.2052 59.5958 13.8513 60.0611 14.3491C60.5384 14.847 61.1349 15.096 61.8508 15.096Z" fill="black"/>
<path fill-rule="evenodd" clip-rule="evenodd" d="M73.4035 3.44012C72.4746 4.369 72.4746 5.86402 72.4746 8.85406V12.2492C72.4746 15.2392 72.4746 16.7342 73.4035 17.6631C74.3324 18.592 75.8274 18.592 78.8174 18.592H89.6573C92.6474 18.592 94.1424 18.592 95.0713 17.6631C96.0002 16.7342 96.0002 15.2392 96.0002 12.2492V8.85406C96.0002 5.86402 96.0002 4.369 95.0713 3.44012C94.1424 2.51123 92.6474 2.51123 89.6573 2.51123H78.8174C75.8274 2.51123 74.3324 2.51123 73.4035 3.44012ZM83.3815 7.54719V5.63792H75.7509V7.54719H78.56V15.4651H80.5585V7.54719H83.3815ZM93.3207 5.63792H91.2104L88.8345 13.0925L86.4867 5.63792H84.3764L87.5768 15.4651H90.0923L93.3207 5.63792Z" fill="black"/>
<defs>
<filter id="filter0_f" x="-0.604918" y="1.21564" width="21.9283" height="20.5998" filterUnits="userSpaceOnUse" color-interpolation-filters="sRGB">
<feFlood flood-opacity="0" result="BackgroundImageFix"/>
<feBlend mode="normal" in="SourceGraphic" in2="BackgroundImageFix" result="shape"/>
<feGaussianBlur stdDeviation="0.302459" result="effect1_foregroundBlur"/>
</filter>
<filter id="filter1_f" x="-0.482404" y="-1.44652" width="21.6833" height="19.9311" filterUnits="userSpaceOnUse" color-interpolation-filters="sRGB">
<feFlood flood-opacity="0" result="BackgroundImageFix"/>
<feBlend mode="normal" in="SourceGraphic" in2="BackgroundImageFix" result="shape"/>
<feGaussianBlur stdDeviation="0.241202" result="effect1_foregroundBlur"/>
</filter>
<filter id="filter2_f" x="-5.17756" y="-6.87275" width="34.1007" height="18.6626" filterUnits="userSpaceOnUse" color-interpolation-filters="sRGB">
<feFlood flood-opacity="0" result="BackgroundImageFix"/>
<feBlend mode="normal" in="SourceGraphic" in2="BackgroundImageFix" result="shape"/>
<feGaussianBlur stdDeviation="2.41202" result="effect1_foregroundBlur"/>
</filter>
<filter id="filter3_f" x="-24.4597" y="-15.1935" width="54.9627" height="56.8279" filterUnits="userSpaceOnUse" color-interpolation-filters="sRGB">
<feFlood flood-opacity="0" result="BackgroundImageFix"/>
<feBlend mode="normal" in="SourceGraphic" in2="BackgroundImageFix" result="shape"/>
<feGaussianBlur stdDeviation="6.27125" result="effect1_foregroundBlur"/>
</filter>
<filter id="filter4_f" x="-26.387" y="-2.90139" width="51.7106" height="53.098" filterUnits="userSpaceOnUse" color-interpolation-filters="sRGB">
<feFlood flood-opacity="0" result="BackgroundImageFix"/>
<feBlend mode="normal" in="SourceGraphic" in2="BackgroundImageFix" result="shape"/>
<feGaussianBlur stdDeviation="6.27125" result="effect1_foregroundBlur"/>
</filter>
<filter id="filter5_f" x="-4.46413" y="-22.4243" width="51.7106" height="53.098" filterUnits="userSpaceOnUse" color-interpolation-filters="sRGB">
<feFlood flood-opacity="0" result="BackgroundImageFix"/>
<feBlend mode="normal" in="SourceGraphic" in2="BackgroundImageFix" result="shape"/>
<feGaussianBlur stdDeviation="6.27125" result="effect1_foregroundBlur"/>
</filter>
<filter id="filter6_f" x="-3.06416" y="12.4671" width="25.5396" height="12.2387" filterUnits="userSpaceOnUse" color-interpolation-filters="sRGB">
<feFlood flood-opacity="0" result="BackgroundImageFix"/>
<feBlend mode="normal" in="SourceGraphic" in2="BackgroundImageFix" result="shape"/>
<feGaussianBlur stdDeviation="0.603005" result="effect1_foregroundBlur"/>
</filter>
<linearGradient id="paint0_linear" x1="3.08481" y1="1.5197e-05" x2="19.2099" y2="20.2668" gradientUnits="userSpaceOnUse">
<stop stop-color="#F88F03"/>
<stop offset="1" stop-color="#F86A03"/>
</linearGradient>
<radialGradient id="paint1_radial" cx="0" cy="0" r="1" gradientUnits="userSpaceOnUse" gradientTransform="translate(15.4184 13.6179) rotate(82.6769) scale(8.50515 13.4605)">
<stop stop-color="#FB3F39"/>
<stop offset="1" stop-color="#FB3F39" stop-opacity="0"/>
</radialGradient>
<radialGradient id="paint2_radial" cx="0" cy="0" r="1" gradientUnits="userSpaceOnUse" gradientTransform="translate(4.4499 8.6769) rotate(-101.763) scale(8.86293 14.0271)">
<stop stop-color="#FB3F39"/>
<stop offset="1" stop-color="#FB3F39" stop-opacity="0"/>
</radialGradient>
</defs>
</svg>
