<svg width="36" height="35" viewBox="0 0 36 35" fill="none" xmlns="http://www.w3.org/2000/svg">
<g filter="url(#filter0_i_5458_2782)">
<path d="M16.5734 1.39057C17.0224 0.0086062 18.9776 0.00861025 19.4266 1.39058L22.6025 11.1652C22.8033 11.7832 23.3793 12.2016 24.0291 12.2016H34.3067C35.7598 12.2016 36.364 14.061 35.1884 14.9152L26.8736 20.9562C26.3479 21.3381 26.1279 22.0152 26.3287 22.6332L29.5047 32.4078C29.9537 33.7898 28.372 34.9389 27.1964 34.0848L18.8817 28.0438C18.3559 27.6619 17.6441 27.6619 17.1183 28.0438L8.80357 34.0849C7.628 34.939 6.04628 33.7898 6.49531 32.4078L9.67126 22.6332C9.87207 22.0152 9.65209 21.3381 9.12635 20.9562L0.811601 14.9151C-0.36397 14.061 0.240197 12.2016 1.69328 12.2016H11.9709C12.6207 12.2016 13.1967 11.7832 13.3975 11.1652L16.5734 1.39057Z" fill="#F8D374"/>
</g>
<path d="M17.0489 1.54508C17.3483 0.623774 18.6517 0.62377 18.9511 1.54508L22.127 11.3197C22.3948 12.1437 23.1627 12.7016 24.0291 12.7016H34.3067C35.2754 12.7016 35.6782 13.9412 34.8945 14.5106L26.5798 20.5517C25.8788 21.061 25.5855 21.9637 25.8532 22.7877L29.0292 32.5623C29.3285 33.4836 28.274 34.2497 27.4903 33.6803L19.1756 27.6393C18.4746 27.13 17.5254 27.13 16.8244 27.6393L8.50968 33.6803C7.72597 34.2497 6.67148 33.4836 6.97084 32.5623L10.1468 22.7877C10.4145 21.9637 10.1212 21.061 9.42025 20.5517L1.10549 14.5106C0.321782 13.9412 0.724556 12.7016 1.69328 12.7016H11.9709C12.8373 12.7016 13.6052 12.1437 13.873 11.3197L17.0489 1.54508Z" stroke="#E1C681"/>
<defs>
<filter id="filter0_i_5458_2782" x="0.19043" y="0.354004" width="35.6191" height="35.0239" filterUnits="userSpaceOnUse" color-interpolation-filters="sRGB">
<feFlood flood-opacity="0" result="BackgroundImageFix"/>
<feBlend mode="normal" in="SourceGraphic" in2="BackgroundImageFix" result="shape"/>
<feColorMatrix in="SourceAlpha" type="matrix" values="0 0 0 0 0 0 0 0 0 0 0 0 0 0 0 0 0 0 127 0" result="hardAlpha"/>
<feOffset dy="1"/>
<feGaussianBlur stdDeviation="2.5"/>
<feComposite in2="hardAlpha" operator="arithmetic" k2="-1" k3="1"/>
<feColorMatrix type="matrix" values="0 0 0 0 0 0 0 0 0 0 0 0 0 0 0 0 0 0 0.05 0"/>
<feBlend mode="normal" in2="shape" result="effect1_innerShadow_5458_2782"/>
</filter>
</defs>
</svg>
