<svg width="15" height="17" fill="none" xmlns="http://www.w3.org/2000/svg"><path d="M2.196 10.718c0 .683-.494 1.241-1.098 1.241C.495 11.96 0 11.401 0 10.72V6.655c0-.682.494-1.241 1.098-1.241.605 0 1.098.559 1.098 1.241v4.062zm12.804 0c0 .683-.494 1.241-1.098 1.241-.605 0-1.099-.558-1.099-1.24V6.655c0-.682.494-1.241 1.099-1.241.604 0 1.098.559 1.098 1.241v4.062zm-5.099-9.23l.705-1.216c.057-.1.04-.215-.038-.257-.078-.041-.19.005-.247.105l-.72 1.245a6.002 6.002 0 00-2.125-.38c-.767 0-1.492.139-2.139.386L4.613.12c-.058-.1-.17-.147-.247-.105-.078.042-.095.157-.037.257l.708 1.223C3.563 2.16 2.57 3.41 2.57 4.844c0 .145.011.29.03.43h9.75c.02-.14.031-.284.031-.43 0-1.437-.998-2.69-2.48-3.355H9.9zM5.249 3.614a.444.444 0 01-.303-.121.412.412 0 01-.126-.292.4.4 0 01.126-.292.43.43 0 01.303-.12.44.44 0 01.304.12.405.405 0 010 .584.438.438 0 01-.304.12zm4.477 0a.444.444 0 01-.303-.121.412.412 0 01-.126-.292.4.4 0 01.126-.292.43.43 0 01.303-.12.44.44 0 01.304.12.405.405 0 010 .584.437.437 0 01-.304.12zM2.57 5.685v6.919h.004c.05.584.609 1.049 1.286 1.049h7.231c.677 0 1.235-.465 1.286-1.049h.004v-6.92H2.57zm4.203 7.933v2.14c0 .683-.494 1.242-1.098 1.242-.604 0-1.098-.559-1.098-1.241v-2.14h2.196zm3.66 0v2.14c0 .683-.493 1.242-1.098 1.242-.604 0-1.098-.559-1.098-1.241v-2.142h2.197z" fill="#fff"/></svg>