<svg width="22" height="20" viewBox="0 0 22 20" fill="none" xmlns="http://www.w3.org/2000/svg">
<path d="M20.3949 1.90927C19.3098 0.678047 17.8044 0 16.1562 0C13.8382 0 12.3706 1.38445 11.5476 2.5459C11.3341 2.84728 11.1525 3.14948 11 3.43385C10.8475 3.14948 10.6659 2.84728 10.4524 2.5459C9.62943 1.38445 8.16183 0 5.84375 0C4.19555 0 2.69023 0.67809 1.6051 1.90932C0.570066 3.08383 0 4.65683 0 6.33854C0 8.16914 0.714699 9.87177 2.2492 11.6967C3.62063 13.3278 5.59363 15.0091 7.87832 16.956C8.72966 17.6815 9.61005 18.4317 10.5473 19.2518L10.5755 19.2764C10.697 19.3828 10.8485 19.436 11 19.436C11.1515 19.436 11.303 19.3828 11.4245 19.2764L11.4527 19.2518C12.39 18.4317 13.2703 17.6815 14.1218 16.9559C16.4064 15.0092 18.3794 13.3279 19.7508 11.6967C21.2853 9.87173 22 8.16914 22 6.33854C22 4.65683 21.4299 3.08382 20.3949 1.90927ZM13.2856 15.9748C12.5517 16.6002 11.7964 17.2438 11 17.9362C10.2036 17.2439 9.44827 16.6003 8.71423 15.9748C4.24295 12.1646 1.28906 9.64743 1.28906 6.33854C1.28906 4.97084 1.74475 3.70051 2.5722 2.7616C3.40914 1.81204 4.57097 1.28906 5.84375 1.28906C7.61101 1.28906 8.75342 2.37781 9.40053 3.29115C9.981 4.11031 10.2839 4.93608 10.3872 5.25306C10.4736 5.51839 10.721 5.69796 11 5.69796C11.279 5.69796 11.5264 5.51839 11.6128 5.25306C11.7161 4.93608 12.019 4.11031 12.5995 3.29111C13.2466 2.37781 14.389 1.28906 16.1562 1.28906C17.429 1.28906 18.5909 1.81204 19.4278 2.7616C20.2553 3.70051 20.7109 4.97084 20.7109 6.33854C20.7109 9.64743 17.757 12.1646 13.2856 15.9748Z" fill="#A2A6AD"/>
</svg>
