<svg width="22" height="20" viewBox="0 0 22 20" fill="none" xmlns="http://www.w3.org/2000/svg">
<path d="M20.3949 1.90927C19.3098 0.678047 17.8044 0 16.1562 0C13.8382 0 12.3706 1.38445 11.5476 2.5459C11.3341 2.84728 11.1525 3.14948 11 3.43385C10.8475 3.14948 10.6659 2.84728 10.4524 2.5459C9.62943 1.38445 8.16183 0 5.84375 0C4.19555 0 2.69023 0.67809 1.6051 1.90932C0.570066 3.08383 0 4.65683 0 6.33854C0 8.16913 0.714699 9.87177 2.2492 11.6967C3.62063 13.3278 5.59363 15.0091 7.87832 16.956C8.72966 17.6815 9.61005 18.4317 10.5473 19.2518L10.5755 19.2764C10.697 19.3828 10.8485 19.436 11 19.436C11.1515 19.436 11.303 19.3828 11.4245 19.2764L11.4527 19.2518C12.39 18.4317 13.2703 17.6815 14.1218 16.9559C16.4064 15.0092 18.3794 13.3279 19.7508 11.6967C21.2853 9.87173 22 8.16913 22 6.33854C22 4.65683 21.4299 3.08382 20.3949 1.90927Z" fill="#F58500"/>
</svg>
