<svg width="21" height="19" fill="none" xmlns="http://www.w3.org/2000/svg"><path fill-rule="evenodd" clip-rule="evenodd" d="M11.316 17.417c4.303 0 7.819-3.53 7.819-7.917 0-4.388-3.516-7.917-7.82-7.917-3.65 0-6.734 2.54-7.585 5.989h1.856L2.793 12.46l-.68-1.192-.031.031a9.837 9.837 0 01-.023-.124L0 7.572h2.107C2.989 3.25 6.777 0 11.316 0c5.193 0 9.402 4.253 9.402 9.5s-4.21 9.5-9.402 9.5a9.339 9.339 0 01-7.053-3.217l1.07-1.186a7.77 7.77 0 005.983 2.82z" fill="#A2A6AD"/><rect x="10" y="5" width="1.5" height="5" rx=".75" fill="#A2A6AD"/><path d="M10.53 10.03a.75.75 0 111.061-1.06l2.475 2.474a.75.75 0 01-1.06 1.061L10.53 10.03z" fill="#A2A6AD"/></svg>