<svg width="19" height="19" viewBox="0 0 19 19" fill="none" xmlns="http://www.w3.org/2000/svg">
<path d="M9.47183 16.4319H3.11787C2.78338 16.4319 2.51189 16.1603 2.51189 15.8259V3.11802C2.51189 2.78354 2.78341 2.51204 3.11787 2.51204H9.47183C9.91747 2.51204 10.2778 2.1517 10.2778 1.70606C10.2778 1.26044 9.91748 0.900024 9.47183 0.900024H3.11787C1.89493 0.900024 0.899902 1.89508 0.899902 3.11802V15.8259C0.899902 17.0488 1.89493 18.0438 3.11787 18.0438H9.47183C9.91747 18.0438 10.2778 17.6835 10.2778 17.2378C10.2778 16.7922 9.91747 16.4319 9.47183 16.4319Z" fill="#A2A6AD" stroke="#A2A6AD" stroke-width="0.2"/>
<path d="M17.8596 8.89815C18.0133 9.05024 18.0997 9.25591 18.0997 9.47193C18.0997 9.68808 18.0126 9.89437 17.8597 10.0457L13.5672 14.2817C13.4107 14.4366 13.2058 14.5139 13.0013 14.5139C12.7933 14.5139 12.5853 14.4333 12.4275 14.2739C12.1157 13.9573 12.1179 13.447 12.4354 13.1341L17.8596 8.89815ZM15.3295 10.278L12.4354 13.1341L17.8596 8.89815L13.5672 4.66229C13.251 4.34937 12.74 4.35364 12.4275 4.67018C12.1147 4.98694 12.1179 5.49721 12.4355 5.80996L15.3295 8.66599H7.35334C6.9077 8.66599 6.54736 9.02633 6.54736 9.47196C6.54736 9.9176 6.90769 10.278 7.35334 10.278H15.3295Z" fill="#A2A6AD"/>
<path d="M17.8596 8.89815C18.0133 9.05024 18.0997 9.25591 18.0997 9.47193C18.0997 9.68808 18.0126 9.89437 17.8597 10.0457L13.5672 14.2817C13.4107 14.4366 13.2058 14.5139 13.0013 14.5139C12.7933 14.5139 12.5853 14.4333 12.4275 14.2739C12.1157 13.9573 12.1179 13.447 12.4354 13.1341M17.8596 8.89815L12.4354 13.1341M17.8596 8.89815L13.5672 4.66229C13.251 4.34937 12.74 4.35364 12.4275 4.67018C12.1147 4.98694 12.1179 5.49721 12.4355 5.80996L15.3295 8.66599H7.35334C6.9077 8.66599 6.54736 9.02633 6.54736 9.47196C6.54736 9.9176 6.90769 10.278 7.35334 10.278H15.3295L12.4354 13.1341" stroke="#A2A6AD" stroke-width="0.2"/>
</svg>
