<svg width="19" height="17" fill="none" xmlns="http://www.w3.org/2000/svg"><path fill-rule="evenodd" clip-rule="evenodd" d="M0 2a2 2 0 012-2h15a2 2 0 012 2v13a2 2 0 01-2 2H2a2 2 0 01-2-2V2zm2 12.5a.5.5 0 01.5-.5h.4a.5.5 0 01.5.5v.4a.5.5 0 01-.5.5h-.4a.5.5 0 01-.5-.5v-.4zm14.5-.5a.5.5 0 00-.5.5v.4a.5.5 0 00.5.5h.4a.5.5 0 00.5-.5v-.4a.5.5 0 00-.5-.5h-.4zM2 11.5a.5.5 0 01.5-.5h.4a.5.5 0 01.5.5v.4a.5.5 0 01-.5.5h-.4a.5.5 0 01-.5-.5v-.4zm14.5-.5a.5.5 0 00-.5.5v.4a.5.5 0 00.5.5h.4a.5.5 0 00.5-.5v-.4a.5.5 0 00-.5-.5h-.4zM2 8.5a.5.5 0 01.5-.5h.4a.5.5 0 01.5.5v.4a.5.5 0 01-.5.5h-.4a.5.5 0 01-.5-.5v-.4zM16.5 8a.5.5 0 00-.5.5v.4a.5.5 0 00.5.5h.4a.5.5 0 00.5-.5v-.4a.5.5 0 00-.5-.5h-.4zM2 5.5a.5.5 0 01.5-.5h.4a.5.5 0 01.5.5v.4a.5.5 0 01-.5.5h-.4a.5.5 0 01-.5-.5v-.4zM16.5 5a.5.5 0 00-.5.5v.4a.5.5 0 00.5.5h.4a.5.5 0 00.5-.5v-.4a.5.5 0 00-.5-.5h-.4zM2 2.5a.5.5 0 01.5-.5h.4a.5.5 0 01.5.5v.4a.5.5 0 01-.5.5h-.4a.5.5 0 01-.5-.5v-.4zM16.5 2a.5.5 0 00-.5.5v.4a.5.5 0 00.5.5h.4a.5.5 0 00.5-.5v-.4a.5.5 0 00-.5-.5h-.4z" fill="#A2A6AD"/></svg>