<svg width="18" height="10" fill="none" xmlns="http://www.w3.org/2000/svg"><path d="M8.423 10H6.208V6.14H2.926V10H.698V.758h2.228v3.669h3.282V.757h2.215V10zm1.416 0V.758h2.977c.817 0 1.55.186 2.203.558a3.86 3.86 0 011.523 1.568c.368.673.554 1.429.559 2.266v.426c0 .846-.18 1.606-.54 2.278a3.92 3.92 0 01-1.51 1.575 4.284 4.284 0 01-2.172.571H9.84zm2.228-7.522v5.808h.774c.64 0 1.13-.226 1.473-.68.343-.456.514-1.133.514-2.03v-.4c0-.893-.171-1.566-.514-2.019-.343-.453-.842-.679-1.498-.679h-.75z" fill="#A0C3FF"/></svg>