<svg width="110" height="148" viewBox="0 0 110 148" fill="none" xmlns="http://www.w3.org/2000/svg">
<mask id="mask0" mask-type="alpha" maskUnits="userSpaceOnUse" x="0" y="0" width="110" height="113">
<path d="M87.934 69.8955C101.584 55.8873 110 36.6986 110 15.5323C110 12.9905 110 11.7197 109.82 10.6579C108.911 5.29265 104.71 1.08943 99.3469 0.179973C98.2857 0 97.0154 0 94.4747 0H31.2762C16.5325 0 9.1606 0 4.5803 4.58239C0 9.16478 0 16.5869 0 31.431C0 36.7597 0 39.424 1.64421 41.069C3.28842 42.7139 5.93474 42.7139 11.2274 42.7139H22.066C8.41636 56.7222 0 75.9108 0 97.0771C0 99.6189 0 100.89 0.179892 101.952C1.08894 107.317 5.29024 111.52 10.6531 112.43C11.7143 112.609 12.9846 112.609 15.5253 112.609H78.7238C93.4675 112.609 100.839 112.609 105.42 108.027C110 103.445 110 96.0226 110 81.1785C110 75.8498 110 73.1855 108.356 71.5405C106.712 69.8955 104.065 69.8955 98.7726 69.8955H87.934Z" fill="#FF9901"/>
</mask>
<g mask="url(#mask0)">
<path d="M87.934 69.8956C101.584 55.8873 110 36.6987 110 15.5324V15.5324C110 12.9995 110 11.733 109.821 10.6749C108.914 5.29837 104.702 1.08606 99.3252 0.178621C98.267 3.05176e-05 97.0006 3.05176e-05 94.4677 3.05176e-05H10.2449C5.41539 3.05176e-05 3.00065 3.05176e-05 1.50033 1.50036C0 3.00068 0 5.41541 0 10.2449V32.4691C0 37.2986 0 39.7133 1.50033 41.2136C3.00065 42.714 5.41539 42.714 10.2449 42.714H22.066C8.41636 56.7223 0 75.9109 0 97.0772V97.0772C0 99.6101 0 100.877 0.17859 101.935C1.08603 107.311 5.29834 111.523 10.6748 112.431C11.733 112.61 12.9994 112.61 15.5323 112.61H99.7551C104.585 112.61 106.999 112.61 108.5 111.109C110 109.609 110 107.194 110 102.365V80.1404C110 75.311 110 72.8962 108.5 71.3959C106.999 69.8956 104.585 69.8956 99.7551 69.8956H87.934Z" fill="url(#paint0_linear)"/>
<g style="mix-blend-mode:screen" filter="url(#filter0_f)">
<path fill-rule="evenodd" clip-rule="evenodd" d="M109.996 13.728C109.799 34.5953 101.421 53.4945 87.934 67.336H88.4029L88.4022 67.3367C77.8172 78.6959 63.3594 87.6589 51.1967 95.1991L51.1962 95.1993L51.1954 95.1998C46.7276 97.9696 42.5695 100.547 39.0268 102.981C41.6231 101.675 44.7785 100.06 48.2861 98.1686C51.1812 96.3116 54.1787 94.5287 57.2413 92.7071C67.3669 86.6844 78.2039 80.2384 88.4022 69.2942C88.7574 68.9368 89.1358 68.5732 89.5256 68.2127C102.235 54.3693 110 35.8631 110 15.5322C110 14.8445 110 14.2502 109.996 13.728ZM110 99.8051C110 104.635 110 107.049 108.5 108.55C106.999 110.05 104.585 110.05 99.7551 110.05H15.5323C12.9994 110.05 11.733 110.05 10.6748 109.871C5.29834 108.964 1.08603 104.752 0.17859 99.3751C0.0484879 98.6042 0.0131646 97.7228 0.00357424 96.3218C0.0011932 96.5732 0 96.825 0 97.077C0 99.6099 0 100.876 0.17859 101.934C1.08603 107.311 5.29834 111.523 10.6748 112.431C11.733 112.609 12.9994 112.609 15.5323 112.609H99.7551C104.585 112.609 106.999 112.609 108.5 111.109C110 109.609 110 107.194 110 102.364V99.8051ZM62.1499 13.9416C64.1149 12.9918 66.0021 12.1034 67.789 11.2622C68.9614 10.7103 70.0906 10.1787 71.1703 9.66347C67.2203 12.2582 63.0505 14.6225 58.7542 17.0585L58.7539 17.0587L58.7538 17.0587C48.5053 22.8696 37.5367 29.0889 27.1133 39.8187C14.9374 53.9209 13.855 53.0722 17.1763 48.2315C18.3369 46.79 19.5477 45.391 20.8061 44.0375C21.2888 43.5984 21.7584 43.1515 22.1934 42.7139C32.3916 31.7697 43.2287 25.3238 53.3543 19.301C56.3607 17.5128 59.3043 15.7619 62.1499 13.9416ZM21.7819 40.1544H10.2449C5.41539 40.1544 3.00065 40.1544 1.50033 38.654C0 37.1537 0 34.739 0 29.9095V32.4689C0 37.2984 0 39.7131 1.50033 41.2135C3.00065 42.7138 5.41539 42.7138 10.2449 42.7138H19.2987C20.1179 41.8382 20.9461 40.9853 21.7819 40.1544Z" fill="#FFB800"/>
</g>
<g style="mix-blend-mode:screen" filter="url(#filter1_f)">
<path d="M92.5197 64.7767C90.773 67.0115 88.8191 69.1475 86.8435 71.175H99.7674C104.591 71.175 107.003 71.175 108.501 72.6742C110 74.1734 110 76.5863 110 81.4122L110 75.014C110 70.1881 110 67.7751 108.501 66.2759C107.003 64.7767 104.591 64.7767 99.7674 64.7767H92.5197Z" fill="#FFF5DB"/>
<path d="M0.0484439 95.5785C0.749618 75.5142 8.93544 56.0999 21.9854 42.7071L16.071 42.8074C5.74954 56.0133 0 73.8555 0 91.9583C0 93.5997 0 94.7112 0.0484439 95.5785Z" fill="#FFF5DB"/>
<path d="M110 10.4135C110 11.3434 109.984 12.2695 109.952 13.1915C109.925 12.7158 109.884 12.3134 109.82 11.9374C108.911 6.5721 104.71 2.36888 99.3469 1.45942C98.2857 1.27945 97.0154 1.27945 94.4747 1.27945H10.2325C5.40886 1.27945 2.99702 1.27945 1.4985 2.77866C0.0373003 4.24052 0.000906454 6.57117 0 11.1606V5.11842C0 0.292534 0 -2.12041 1.49852 -3.61961C2.99705 -5.11882 5.40888 -5.11882 10.2326 -5.11882H94.4747C97.0154 -5.11882 98.2857 -5.11882 99.3469 -4.93885C104.71 -4.02939 108.911 0.173832 109.82 5.5391C110 6.60083 110 7.87173 110 10.4135Z" fill="#FFF5DB"/>
</g>
<g style="mix-blend-mode:multiply">
<path d="M44.7674 100.453C55.4264 94.0545 77.2201 83.1242 92.7326 64.6225L122.151 62.0632L126.628 115.809L0 119.008L44.7674 100.453Z" fill="url(#paint1_radial)"/>
</g>
<g style="mix-blend-mode:multiply">
<path d="M64.5552 12.7966C53.8963 19.1948 32.1101 30.5722 16.5901 48.6269L-12.8287 51.1862L-17.3054 -2.55927L99.7294 -5.7584L64.5552 12.7966Z" fill="url(#paint2_radial)" fill-opacity="0.7"/>
</g>
<g style="mix-blend-mode:overlay" filter="url(#filter2_f)">
<path d="M23.1884 27.8646C9.11859 27.8646 -1.87642 15.9961 -1.87642 3.83938L33.298 -10.8766L127.949 -2.55889C122.193 11.304 107.494 42.331 107.494 36.1887C107.494 28.5108 96.4061 11.1161 77.2201 11.1161C58.034 11.1161 55.1651 27.8646 23.1884 27.8646Z" fill="#FFD600"/>
</g>
<g style="mix-blend-mode:hue" filter="url(#filter3_f)">
<rect width="64.8688" height="167.008" transform="matrix(0.753434 -0.657523 0.657183 0.753731 -63.2718 28.5766)" fill="#E73361"/>
</g>
<g style="mix-blend-mode:overlay" filter="url(#filter4_f)">
<rect width="64.8688" height="140.734" transform="matrix(0.753434 -0.657523 0.657183 0.753731 -73.5043 93.8389)" fill="#E73361"/>
</g>
<g style="mix-blend-mode:overlay" filter="url(#filter5_f)">
<rect width="64.8688" height="140.734" transform="matrix(0.753434 -0.657523 0.657183 0.753731 42.8911 -9.81282)" fill="#FFC700"/>
</g>
<g style="mix-blend-mode:multiply" filter="url(#filter6_f)">
<path d="M25.3089 101.732C7.93352 98.7355 3.64077 89.2291 3.64077 72.5936L-9.86548 101.732L15.7159 124.766L112.925 108.771C110.367 102.586 100.007 90.2156 79.0299 90.2156C52.8089 90.2156 45.3424 105.188 25.3089 101.732Z" fill="#F87103" fill-opacity="0.38"/>
</g>
</g>
<path d="M69.1457 59.0196C69.0261 59.1814 68.4679 59.8692 68.0294 60.3142L67.7902 60.557C64.4411 64.2386 56.1083 69.7812 51.8821 71.5614C51.8821 71.6018 49.3702 72.6537 48.1741 72.6942H48.0147C46.1807 72.6942 44.4662 71.6423 43.5891 69.9431C43.1107 69.0126 42.6721 66.3019 42.6322 66.2615C42.2734 63.834 42.0342 60.116 42.0342 56.0258C42.0342 51.7373 42.2734 47.8534 42.712 45.4664C42.712 45.426 43.1505 43.2413 43.4296 42.5131C43.8682 41.4612 44.6656 40.5711 45.6623 40.0047C46.4597 39.6001 47.297 39.3978 48.1741 39.3978C49.0912 39.4383 50.8056 40.0492 51.4834 40.3284C55.9488 42.1085 64.481 47.9343 67.7503 51.4946C68.3085 52.061 68.9065 52.7487 69.066 52.9106C69.7438 53.8006 70.1026 54.893 70.1026 56.0703C70.1026 57.1181 69.7837 58.17 69.1457 59.0196" fill="white"/>
<path d="M5.4724 140.997H15.3733V145.178H0V141.198L9.8125 128.674H0.471211V124.694H15.2849L15.3144 128.674L5.4724 140.997Z" fill="black"/>
<path d="M19.5322 130.931C21.1618 129.331 23.1547 128.531 25.5107 128.531C27.8668 128.531 29.8596 129.331 31.4892 130.931C33.1385 132.531 33.9631 134.53 33.9631 136.93C33.9631 139.349 33.1483 141.358 31.5187 142.958C29.9087 144.538 27.906 145.328 25.5107 145.328C23.135 145.328 21.1324 144.528 19.5028 142.929C17.8928 141.329 17.0878 139.329 17.0878 136.93C17.0878 134.53 17.9026 132.531 19.5322 130.931ZM28.4852 133.74C27.6999 132.921 26.7084 132.511 25.5107 132.511C24.3131 132.511 23.3117 132.921 22.5068 133.74C21.7214 134.559 21.3287 135.623 21.3287 136.93C21.3287 138.237 21.7214 139.3 22.5068 140.119C23.3117 140.939 24.3131 141.348 25.5107 141.348C26.7084 141.348 27.6999 140.939 28.4852 140.119C29.2902 139.3 29.6927 138.237 29.6927 136.93C29.6927 135.623 29.2902 134.559 28.4852 133.74Z" fill="black"/>
<path d="M36.9422 144.977V122.445H41.3544V144.977H36.9422Z" fill="black"/>
<path d="M56.6097 128.883H60.8212L60.7917 144.977H56.5803V142.811C55.3433 144.489 53.6548 145.328 51.5148 145.328C49.3747 145.328 47.6076 144.548 46.2136 142.987C44.8196 141.407 44.1226 139.388 44.1226 136.93C44.1226 134.472 44.8196 132.462 46.2136 130.902C47.6273 129.321 49.3845 128.531 51.4853 128.531C53.645 128.531 55.3532 129.4 56.6097 131.136V128.883ZM52.4572 141.348C53.6548 141.348 54.6463 140.939 55.4317 140.119C56.217 139.3 56.6097 138.237 56.6097 136.93C56.6097 135.623 56.217 134.559 55.4317 133.74C54.6463 132.921 53.6548 132.511 52.4572 132.511C51.2595 132.511 50.2778 132.921 49.5121 133.74C48.7464 134.559 48.3635 135.623 48.3635 136.93C48.3635 138.237 48.7464 139.3 49.5121 140.119C50.2975 140.939 51.2791 141.348 52.4572 141.348Z" fill="black"/>
<path fill-rule="evenodd" clip-rule="evenodd" d="M71.469 122.167C69.9404 123.696 69.9404 126.156 69.9404 131.077V136.664C69.9404 141.584 69.9404 144.044 71.469 145.573C72.9976 147.102 75.4579 147.102 80.3784 147.102H98.2169C103.137 147.102 105.598 147.102 107.126 145.573C108.655 144.044 108.655 141.584 108.655 136.664V131.077C108.655 126.156 108.655 123.696 107.126 122.167C105.598 120.639 103.137 120.639 98.2168 120.639H80.3784C75.4579 120.639 72.9976 120.639 71.469 122.167ZM87.8883 128.926V125.784H75.3311V128.926H79.9538V141.956H83.2426V128.926H87.8883ZM104.244 125.784H100.772L96.8619 138.052L92.9982 125.784H89.5255L94.7921 141.956H98.9318L104.244 125.784Z" fill="black"/>
<defs>
<filter id="filter0_f" x="-3.21168" y="6.45179" width="116.423" height="109.369" filterUnits="userSpaceOnUse" color-interpolation-filters="sRGB">
<feFlood flood-opacity="0" result="BackgroundImageFix"/>
<feBlend mode="normal" in="SourceGraphic" in2="BackgroundImageFix" result="shape"/>
<feGaussianBlur stdDeviation="1.60584" result="effect1_foregroundBlur"/>
</filter>
<filter id="filter1_f" x="-2.56122" y="-7.68004" width="115.122" height="105.82" filterUnits="userSpaceOnUse" color-interpolation-filters="sRGB">
<feFlood flood-opacity="0" result="BackgroundImageFix"/>
<feBlend mode="normal" in="SourceGraphic" in2="BackgroundImageFix" result="shape"/>
<feGaussianBlur stdDeviation="1.28061" result="effect1_foregroundBlur"/>
</filter>
<filter id="filter2_f" x="-27.4886" y="-36.4888" width="181.05" height="99.0847" filterUnits="userSpaceOnUse" color-interpolation-filters="sRGB">
<feFlood flood-opacity="0" result="BackgroundImageFix"/>
<feBlend mode="normal" in="SourceGraphic" in2="BackgroundImageFix" result="shape"/>
<feGaussianBlur stdDeviation="12.8061" result="effect1_foregroundBlur"/>
</filter>
<filter id="filter3_f" x="-129.863" y="-80.6677" width="291.812" height="301.715" filterUnits="userSpaceOnUse" color-interpolation-filters="sRGB">
<feFlood flood-opacity="0" result="BackgroundImageFix"/>
<feBlend mode="normal" in="SourceGraphic" in2="BackgroundImageFix" result="shape"/>
<feGaussianBlur stdDeviation="33.2958" result="effect1_foregroundBlur"/>
</filter>
<filter id="filter4_f" x="-140.096" y="-15.4054" width="274.546" height="281.912" filterUnits="userSpaceOnUse" color-interpolation-filters="sRGB">
<feFlood flood-opacity="0" result="BackgroundImageFix"/>
<feBlend mode="normal" in="SourceGraphic" in2="BackgroundImageFix" result="shape"/>
<feGaussianBlur stdDeviation="33.2958" result="effect1_foregroundBlur"/>
</filter>
<filter id="filter5_f" x="-23.7005" y="-119.057" width="274.546" height="281.912" filterUnits="userSpaceOnUse" color-interpolation-filters="sRGB">
<feFlood flood-opacity="0" result="BackgroundImageFix"/>
<feBlend mode="normal" in="SourceGraphic" in2="BackgroundImageFix" result="shape"/>
<feGaussianBlur stdDeviation="33.2958" result="effect1_foregroundBlur"/>
</filter>
<filter id="filter6_f" x="-16.2685" y="66.1906" width="135.597" height="64.9787" filterUnits="userSpaceOnUse" color-interpolation-filters="sRGB">
<feFlood flood-opacity="0" result="BackgroundImageFix"/>
<feBlend mode="normal" in="SourceGraphic" in2="BackgroundImageFix" result="shape"/>
<feGaussianBlur stdDeviation="3.20152" result="effect1_foregroundBlur"/>
</filter>
<linearGradient id="paint0_linear" x1="16.3781" y1="0.000111202" x2="101.991" y2="107.602" gradientUnits="userSpaceOnUse">
<stop stop-color="#F88F03"/>
<stop offset="1" stop-color="#F86A03"/>
</linearGradient>
<radialGradient id="paint1_radial" cx="0" cy="0" r="1" gradientUnits="userSpaceOnUse" gradientTransform="translate(81.8605 72.3004) rotate(82.6769) scale(45.1562 71.4657)">
<stop stop-color="#FB3F39"/>
<stop offset="1" stop-color="#FB3F39" stop-opacity="0"/>
</radialGradient>
<radialGradient id="paint2_radial" cx="0" cy="0" r="1" gradientUnits="userSpaceOnUse" gradientTransform="translate(23.6248 46.0676) rotate(-101.763) scale(47.0557 74.4737)">
<stop stop-color="#FB3F39"/>
<stop offset="1" stop-color="#FB3F39" stop-opacity="0"/>
</radialGradient>
</defs>
</svg>
