<svg width="23" height="23" fill="none" xmlns="http://www.w3.org/2000/svg"><path d="M9.265 1.917l-.472 2.418a7.65 7.65 0 00-2.152 1.237l-2.323-.8-2.235 3.874 1.859 1.615a7.678 7.678 0 00-.109 1.239c0 .423.043.835.109 1.24l-1.859 1.614 2.235 3.875 2.323-.801c.638.524 1.366.94 2.152 1.237l.472 2.418h4.47l.471-2.418a7.647 7.647 0 002.153-1.237l2.323.8 2.235-3.874-1.86-1.615a7.55 7.55 0 00.11-1.239c0-.423-.043-.835-.11-1.24l1.86-1.614-2.235-3.875-2.323.801a7.649 7.649 0 00-2.153-1.237l-.471-2.418h-4.47zm2.235 5.75a3.834 3.834 0 110 7.667 3.834 3.834 0 010-7.667z" fill="#A2A6AD"/></svg>