<svg width="17" height="15" viewBox="0 0 17 15" fill="none" xmlns="http://www.w3.org/2000/svg">
<path d="M9.11303 1.03292C8.78446 1.39181 8.79799 1.95605 9.14301 2.29826L9.1435 2.29875L13.504 6.5999H1.625C1.13277 6.5999 0.75 7.01237 0.75 7.49991C0.75 7.98745 1.13277 8.39992 1.625 8.39992H13.4858L9.14312 12.7018L9.31906 12.8794L9.14312 12.7018C8.79747 13.0442 8.78459 13.6086 9.11314 13.9673L9.11326 13.9675C9.28419 14.1538 9.51609 14.25 9.75 14.25C9.96964 14.25 10.1882 14.1654 10.3569 13.9982C10.3569 13.9982 10.3569 13.9981 10.357 13.9981L15.8097 8.59663L15.8097 8.59668L15.8138 8.59242C16.0959 8.29942 16.25 7.91055 16.25 7.49991C16.25 7.08772 16.0949 6.69923 15.8028 6.39625L15.8029 6.3962L15.7987 6.39214L10.3569 1.00162C10.0062 0.654205 9.4465 0.668336 9.11303 1.03292Z" fill="#9FA8B8" stroke="#9FA8B8" stroke-width="0.5"/>
</svg>
