<svg width="19" height="21" fill="none" xmlns="http://www.w3.org/2000/svg"><path fill-rule="evenodd" clip-rule="evenodd" d="M13.577 4a2 2 0 100-4 2 2 0 000 4zm-7.475 8l1.922 1.5s-1.345 2-1.922 2c-.13 0-.437.02-.845.047-1.413.092-4.034.263-4.655-.047-1-.5-.578-2 0-2h4.5l1-1.5zm7.125-3.37l.766-2.1 1.221 1.873 2.98-.34c1.284.658.687 1.598.228 1.986l-3.974.455-1.22-1.874zM11.077 11c1-1.5 2.8-4.8 2-6-.8-1.2-4.666-1.833-6.5-2l-3.5 2.5c-.166.5-.2 1.5 1 1.5l3-2 2.5.5c-1.333 1.5-3.7 4.8-2.5 6l4.5 3c-.333 1.167-1 3.7-1 4.5 0 1 1.5 1.5 2.5.5l1-5.5-3-3z" fill="#A2A6AD"/></svg>