<svg width="84" height="12" fill="none" xmlns="http://www.w3.org/2000/svg"><path d="M5.525 1.436a.5.5 0 01.95 0l.897 2.715a.5.5 0 00.464.343l2.783.06a.5.5 0 01.3.89L8.662 7.246a.5.5 0 00-.169.53l.812 2.82a.5.5 0 01-.776.542L6.295 9.503a.5.5 0 00-.59 0l-2.233 1.634a.5.5 0 01-.776-.542l.812-2.82a.5.5 0 00-.17-.53l-2.258-1.8a.5.5 0 01.301-.891l2.783-.06a.5.5 0 00.464-.343l.897-2.715zm18 0a.5.5 0 01.95 0l.897 2.715a.5.5 0 00.464.343l2.783.06a.5.5 0 01.3.89l-2.258 1.801a.5.5 0 00-.169.53l.812 2.82a.5.5 0 01-.776.542l-2.233-1.634a.5.5 0 00-.59 0l-2.233 1.634a.5.5 0 01-.776-.542l.812-2.82a.5.5 0 00-.17-.53l-2.258-1.8a.5.5 0 01.301-.891l2.783-.06a.5.5 0 00.464-.343l.897-2.715zm18 0a.5.5 0 01.95 0l.897 2.715a.5.5 0 00.464.343l2.783.06a.5.5 0 01.3.89l-2.258 1.801a.5.5 0 00-.169.53l.812 2.82a.5.5 0 01-.776.542l-2.233-1.634a.5.5 0 00-.59 0l-2.233 1.634a.5.5 0 01-.776-.542l.812-2.82a.5.5 0 00-.17-.53l-2.258-1.8a.5.5 0 01.301-.891l2.783-.06a.5.5 0 00.464-.343l.897-2.715zm18 0a.5.5 0 01.95 0l.897 2.715a.5.5 0 00.464.343l2.783.06a.5.5 0 01.3.89l-2.258 1.801a.5.5 0 00-.169.53l.812 2.82a.5.5 0 01-.776.542l-2.233-1.634a.5.5 0 00-.59 0l-2.233 1.634a.5.5 0 01-.776-.542l.812-2.82a.5.5 0 00-.17-.53l-2.258-1.8a.5.5 0 01.301-.891l2.783-.06a.5.5 0 00.464-.343l.897-2.715z" fill="#FCE843"/><path d="M77.525 1.436a.5.5 0 01.95 0l.897 2.715a.5.5 0 00.464.343l2.783.06a.5.5 0 01.3.89l-2.258 1.801a.5.5 0 00-.169.53l.812 2.82a.5.5 0 01-.776.542l-2.233-1.634a.5.5 0 00-.59 0l-2.233 1.634a.5.5 0 01-.776-.542l.812-2.82a.5.5 0 00-.17-.53l-2.258-1.8a.5.5 0 01.301-.891l2.783-.06a.5.5 0 00.464-.343l.897-2.715z" fill="url(#paint0_linear)"/><defs><linearGradient id="paint0_linear" x1="74.471" y1="6.353" x2="81.882" y2="6.353" gradientUnits="userSpaceOnUse"><stop offset=".677" stop-color="#FCE843"/><stop offset=".677" stop-color="#696969"/><stop offset="1" stop-color="#696969"/></linearGradient></defs></svg>