<svg width="18" height="18" viewBox="0 0 18 18" fill="none" xmlns="http://www.w3.org/2000/svg">
<path d="M17.9904 9.16826C17.9904 8.43081 17.9292 7.89266 17.7967 7.33459H9.1792V10.6631H14.2375C14.1355 11.4903 13.5848 12.736 12.361 13.573L12.3438 13.6845L15.0685 15.7471L15.2573 15.7655C16.991 14.2009 17.9904 11.8988 17.9904 9.16826Z" fill="#4285F4"/>
<path d="M9.17936 17.9382C11.6575 17.9382 13.7379 17.1409 15.2575 15.7657L12.3612 13.5732C11.5861 14.1014 10.5459 14.4701 9.17936 14.4701C6.7522 14.4701 4.69218 12.9056 3.95784 10.743L3.8502 10.752L1.01703 12.8946L0.97998 12.9952C2.4893 15.9251 5.58956 17.9382 9.17936 17.9382Z" fill="#34A853"/>
<path d="M3.95783 10.743C3.76406 10.1849 3.65193 9.58692 3.65193 8.96908C3.65193 8.35117 3.76406 7.75325 3.94763 7.19519L3.9425 7.07633L1.07383 4.89929L0.979977 4.94292C0.357916 6.15874 0.000976562 7.52406 0.000976562 8.96908C0.000976562 10.4141 0.357916 11.7793 0.979977 12.9952L3.95783 10.743Z" fill="#FBBC05"/>
<path d="M9.17933 3.46802C10.9028 3.46802 12.0654 4.19551 12.7283 4.80346L15.3186 2.33196C13.7277 0.886946 11.6574 0 9.17933 0C5.58954 0 2.48929 2.01305 0.97998 4.94292L3.94764 7.19519C4.69217 5.03265 6.75218 3.46802 9.17933 3.46802Z" fill="#EB4335"/>
</svg>
