<svg width="90" height="109" viewBox="0 0 90 109" fill="none" xmlns="http://www.w3.org/2000/svg">
<mask id="mask0" style="mask-type:alpha" maskUnits="userSpaceOnUse" x="9" y="0" width="72" height="73">
<path d="M66.3001 45.2384C75.1345 36.1718 80.5818 23.7524 80.5818 10.053C80.5818 8.40785 80.5818 7.58529 80.4654 6.8981C79.877 3.42555 77.1578 0.705111 73.6869 0.116484C73 0 72.1778 0 70.5334 0H29.6296C20.087 0 15.3157 0 12.3512 2.96585C9.38672 5.9317 9.38672 10.7355 9.38672 20.343C9.38672 23.7919 9.38672 25.5163 10.4509 26.581C11.5151 27.6457 13.2278 27.6457 16.6534 27.6457H23.6685C14.834 36.7122 9.38672 49.1316 9.38672 62.8311C9.38672 64.4762 9.38672 65.2987 9.50315 65.9859C10.0915 69.4585 12.8107 72.1789 16.2817 72.7675C16.9685 72.884 17.7907 72.884 19.4351 72.884H60.339C69.8815 72.884 74.6528 72.884 77.6173 69.9182C80.5818 66.9523 80.5818 62.1485 80.5818 52.541C80.5818 49.0921 80.5818 47.3677 79.5176 46.303C78.4535 45.2384 76.7407 45.2384 73.3151 45.2384H66.3001Z" fill="#FF9901"/>
</mask>
<g mask="url(#mask0)">
<path d="M66.3001 45.2384C75.1345 36.1718 80.5818 23.7524 80.5818 10.053V10.053C80.5818 8.4136 80.5818 7.59391 80.4662 6.90906C79.8789 3.42923 77.1526 0.702905 73.6728 0.115588C72.9879 0 72.1682 0 70.5288 0H16.0175C12.8917 0 11.3288 0 10.3578 0.971053C9.38672 1.94211 9.38672 3.50499 9.38672 6.63076V21.0149C9.38672 24.1407 9.38672 25.7036 10.3578 26.6746C11.3288 27.6457 12.8917 27.6457 16.0175 27.6457H23.6685C14.834 36.7122 9.38672 49.1316 9.38672 62.8311V62.8311C9.38672 64.4704 9.38672 65.2901 9.50231 65.975C10.0896 69.4548 12.816 72.1811 16.2958 72.7684C16.9806 72.884 17.8003 72.884 19.4397 72.884H73.9511C77.0768 72.884 78.6397 72.884 79.6108 71.913C80.5818 70.9419 80.5818 69.379 80.5818 66.2533V51.8691C80.5818 48.7434 80.5818 47.1805 79.6108 46.2094C78.6397 45.2384 77.0768 45.2384 73.9511 45.2384H66.3001Z" fill="url(#paint0_linear)"/>
<g style="mix-blend-mode:screen" filter="url(#filter0_f)">
<path fill-rule="evenodd" clip-rule="evenodd" d="M80.5795 8.88537C80.4516 22.3913 75.0293 34.6234 66.3001 43.582H66.6049L66.6045 43.5825C59.7536 50.9345 50.3961 56.7356 42.524 61.6158C39.632 63.4087 36.9404 65.0773 34.6473 66.6528C36.3257 65.8085 38.3649 64.7648 40.6318 63.5423C42.5078 62.3388 44.4502 61.1834 46.4349 60.0029L46.435 60.0028L46.4352 60.0027C52.9888 56.1047 60.0028 51.9327 66.6034 44.8493C66.8329 44.6184 67.0774 44.3834 67.3291 44.1505C75.5556 35.1906 80.5818 23.2123 80.5818 10.0531C80.5818 9.60799 80.5818 9.22332 80.5795 8.88537ZM80.5818 64.5969C80.5818 67.7227 80.5818 69.2855 79.6108 70.2566C78.6397 71.2276 77.0768 71.2276 73.951 71.2276H19.4397C17.8003 71.2276 16.9806 71.2276 16.2958 71.1121C12.816 70.5247 10.0896 67.7984 9.50231 64.3186C9.4181 63.8197 9.39524 63.2492 9.38903 62.3424C9.38749 62.5051 9.38672 62.668 9.38672 62.8312C9.38672 64.4705 9.38672 65.2902 9.50231 65.9751C10.0896 69.4549 12.816 72.1812 16.2958 72.7685C16.9806 72.8841 17.8003 72.8841 19.4397 72.8841H73.951C77.0768 72.8841 78.6397 72.8841 79.6108 71.9131C80.5818 70.942 80.5818 69.3791 80.5818 66.2534V64.5969ZM49.6113 9.0244C50.8835 8.40937 52.1055 7.83416 53.2624 7.28952C54.0212 6.93233 54.752 6.58829 55.4508 6.25479C52.8942 7.93423 50.1954 9.46449 47.4146 11.0412L47.4146 11.0412C40.7814 14.8022 33.6822 18.8275 26.9359 25.7721C19.0496 34.9062 18.3538 34.3493 20.5091 31.2103C21.2577 30.2808 22.0384 29.3788 22.8498 28.506C23.1635 28.2206 23.4688 27.9302 23.7515 27.6458C30.3521 20.5624 37.3661 16.3904 43.9197 12.4924C45.8651 11.3352 47.7699 10.2022 49.6113 9.0244ZM23.4851 25.9893H16.0175C12.8917 25.9893 11.3288 25.9893 10.3578 25.0182C9.38672 24.0472 9.38672 22.4843 9.38672 19.3585V21.015C9.38672 24.1408 9.38672 25.7037 10.3578 26.6747C11.3288 27.6458 12.8917 27.6458 16.0175 27.6458H21.878C22.4082 27.0791 22.9442 26.5271 23.4851 25.9893Z" fill="#FFB800"/>
</g>
<g style="mix-blend-mode:screen" filter="url(#filter1_f)">
<path d="M69.2681 41.9254C68.1376 43.3719 66.8729 44.7543 65.5943 46.0666H73.959C77.081 46.0666 78.642 46.0666 79.6119 47.0369C80.5818 48.0072 80.5818 49.569 80.5818 52.6924L80.5818 48.5513C80.5818 45.4278 80.5818 43.8661 79.6119 42.8958C78.6421 41.9254 77.081 41.9254 73.959 41.9254H69.2681Z" fill="#FFF5DB"/>
<path d="M9.41807 61.8612C9.87189 48.875 15.17 36.3096 23.6163 27.6413L19.7883 27.7062C13.108 36.2535 9.38672 47.8015 9.38672 59.5181C9.38672 60.5805 9.38672 61.2999 9.41807 61.8612Z" fill="#FFF5DB"/>
<path d="M80.5818 6.74004C80.5818 7.3419 80.5713 7.94128 80.5505 8.53802C80.5333 8.23011 80.5066 7.96972 80.4654 7.72632C79.877 4.25377 77.1578 1.53332 73.6869 0.944696C73 0.828212 72.1778 0.828212 70.5334 0.828212H16.0095C12.8875 0.828212 11.3265 0.828212 10.3566 1.79854C9.41086 2.7447 9.38731 4.25316 9.38672 7.22354V3.3129C9.38672 0.189454 9.38672 -1.37227 10.3566 -2.3426C11.3265 -3.31293 12.8875 -3.31293 16.0095 -3.31293H70.5334C72.1778 -3.31293 73 -3.31293 73.6869 -3.19644C77.1578 -2.60782 79.877 0.112626 80.4654 3.58518C80.5818 4.27236 80.5818 5.09492 80.5818 6.74004Z" fill="#FFF5DB"/>
</g>
<g style="mix-blend-mode:multiply">
<path d="M38.3615 65.0159C45.2602 60.8747 59.3657 53.8003 69.4058 41.8255L88.4464 40.169L91.3439 74.9546L9.38672 77.0252L38.3615 65.0159Z" fill="url(#paint1_radial)"/>
</g>
<g style="mix-blend-mode:multiply">
<path d="M51.1688 8.28222C44.2701 12.4234 30.1695 19.7871 20.1244 31.4726L1.0838 33.1291L-1.81368 -1.65651L73.9346 -3.72707L51.1688 8.28222Z" fill="url(#paint2_radial)" fill-opacity="0.7"/>
</g>
<g style="mix-blend-mode:overlay" filter="url(#filter2_f)">
<path d="M24.3947 18.0346C15.2884 18.0346 8.17212 10.3529 8.17212 2.48476L30.938 -7.03986L92.1989 -1.65638C88.4736 7.31609 78.9597 27.3976 78.9597 23.4221C78.9597 18.4528 71.7834 7.19449 59.3656 7.19449C46.9479 7.19449 45.091 18.0346 24.3947 18.0346Z" fill="#FFD600"/>
</g>
<g style="mix-blend-mode:hue" filter="url(#filter3_f)">
<rect width="41.9849" height="108.092" transform="matrix(0.753434 -0.657523 0.657183 0.753731 -31.5647 18.4956)" fill="#E73361"/>
</g>
<g style="mix-blend-mode:overlay" filter="url(#filter4_f)">
<rect width="41.9849" height="91.0871" transform="matrix(0.753434 -0.657523 0.657183 0.753731 -38.1875 60.7351)" fill="#E73361"/>
</g>
<g style="mix-blend-mode:overlay" filter="url(#filter5_f)">
<rect width="41.9849" height="91.0871" transform="matrix(0.753434 -0.657523 0.657183 0.753731 37.1467 -6.35126)" fill="#FFC700"/>
</g>
<g style="mix-blend-mode:multiply" filter="url(#filter6_f)">
<path d="M25.7673 65.8441C14.5215 63.9044 11.7431 57.7516 11.7431 46.9846L3.00146 65.8441L19.5585 80.7522L82.4751 70.3994C80.8194 66.3963 74.1138 58.3901 60.537 58.3901C43.5661 58.3901 38.7336 68.0806 25.7673 65.8441Z" fill="#F87103" fill-opacity="0.38"/>
</g>
</g>
<path d="M54.1396 38.1991C54.0622 38.3038 53.701 38.7489 53.4171 39.037L53.2623 39.1941C51.0947 41.5769 45.7014 45.1643 42.9661 46.3164C42.9661 46.3426 41.3404 47.0234 40.5662 47.0496H40.463C39.276 47.0496 38.1664 46.3688 37.5987 45.269C37.289 44.6668 37.0052 42.9124 36.9794 42.8862C36.7471 41.3151 36.5923 38.9087 36.5923 36.2614C36.5923 33.4857 36.7471 30.972 37.031 29.4271C37.031 29.4009 37.3148 27.9869 37.4955 27.5155C37.7793 26.8347 38.2954 26.2587 38.9405 25.8921C39.4566 25.6302 39.9985 25.4993 40.5662 25.4993C41.1598 25.5255 42.2694 25.9209 42.7081 26.1016C45.5982 27.2537 51.1205 31.0243 53.2365 33.3286C53.5977 33.6952 53.9848 34.1404 54.088 34.2451C54.5267 34.8212 54.759 35.5282 54.759 36.2902C54.759 36.9684 54.5525 37.6492 54.1396 38.1991" fill="white"/>
<path d="M4.53288 103.551H12.7339V107.014H0V103.718L8.12786 93.3436H0.390312V90.0472H12.6607L12.6851 93.3436L4.53288 103.551Z" fill="black"/>
<path d="M16.1789 95.2134C17.5287 93.8883 19.1794 93.2258 21.131 93.2258C23.0825 93.2258 24.7332 93.8883 26.083 95.2134C27.4491 96.5384 28.1322 98.1947 28.1322 100.182C28.1322 102.186 27.4573 103.85 26.1074 105.175C24.7739 106.484 23.115 107.139 21.131 107.139C19.1631 107.139 17.5043 106.476 16.1545 105.151C14.8209 103.826 14.1541 102.17 14.1541 100.182C14.1541 98.1947 14.829 96.5384 16.1789 95.2134ZM23.5948 97.5403C22.9443 96.8616 22.123 96.5223 21.131 96.5223C20.1389 96.5223 19.3095 96.8616 18.6427 97.5403C17.9922 98.219 17.6669 99.0996 17.6669 100.182C17.6669 101.265 17.9922 102.146 18.6427 102.824C19.3095 103.503 20.1389 103.842 21.131 103.842C22.123 103.842 22.9443 103.503 23.5948 102.824C24.2616 102.146 24.595 101.265 24.595 100.182C24.595 99.0996 24.2616 98.219 23.5948 97.5403Z" fill="black"/>
<path d="M30.5998 106.848V88.1842H34.2545V106.848H30.5998Z" fill="black"/>
<path d="M46.8908 93.5167H50.3792L50.3548 106.848H46.8664V105.054C45.8418 106.444 44.4432 107.139 42.6705 107.139C40.8979 107.139 39.4342 106.492 38.2795 105.2C37.1248 103.891 36.5475 102.218 36.5475 100.182C36.5475 98.1462 37.1248 96.4819 38.2795 95.1891C39.4504 93.8803 40.906 93.2258 42.6461 93.2258C44.4351 93.2258 45.8499 93.9449 46.8908 95.3831V93.5167ZM43.4511 103.842C44.4432 103.842 45.2645 103.503 45.915 102.824C46.5655 102.146 46.8908 101.265 46.8908 100.182C46.8908 99.0996 46.5655 98.219 45.915 97.5403C45.2645 96.8616 44.4432 96.5223 43.4511 96.5223C42.4591 96.5223 41.646 96.8616 41.0117 97.5403C40.3774 98.219 40.0603 99.0996 40.0603 100.182C40.0603 101.265 40.3774 102.146 41.0117 102.824C41.6622 103.503 42.4754 103.842 43.4511 103.842Z" fill="black"/>
<path fill-rule="evenodd" clip-rule="evenodd" d="M59.1983 87.9539C57.9321 89.2201 57.9321 91.2579 57.9321 95.3337V99.9616C57.9321 104.037 57.9321 106.075 59.1983 107.341C60.4645 108.607 62.5023 108.607 66.5781 108.607H81.354C85.4297 108.607 87.4676 108.607 88.7337 107.341C89.9999 106.075 89.9999 104.037 89.9999 99.9616V95.3337C89.9999 91.2579 89.9999 89.2201 88.7337 87.9539C87.4676 86.6877 85.4297 86.6877 81.354 86.6877H66.5781C62.5023 86.6877 60.4645 86.6877 59.1983 87.9539ZM72.8 93.5524V90.9499H62.3988V93.5524H66.2278V104.345H68.952V93.5524H72.8ZM86.3481 90.9499H83.4716L80.2331 101.111L77.0327 90.9499H74.1562L78.5186 104.345H81.9476L86.3481 90.9499Z" fill="black"/>
<defs>
<filter id="filter0_f" x="7.30803" y="4.1761" width="75.3525" height="70.7867" filterUnits="userSpaceOnUse" color-interpolation-filters="sRGB">
<feFlood flood-opacity="0" result="BackgroundImageFix"/>
<feBlend mode="normal" in="SourceGraphic" in2="BackgroundImageFix" result="shape"/>
<feGaussianBlur stdDeviation="1.03934" result="effect1_foregroundBlur"/>
</filter>
<filter id="filter1_f" x="7.72903" y="-4.97062" width="74.5105" height="68.4895" filterUnits="userSpaceOnUse" color-interpolation-filters="sRGB">
<feFlood flood-opacity="0" result="BackgroundImageFix"/>
<feBlend mode="normal" in="SourceGraphic" in2="BackgroundImageFix" result="shape"/>
<feGaussianBlur stdDeviation="0.828845" result="effect1_foregroundBlur"/>
</filter>
<filter id="filter2_f" x="-8.40479" y="-23.6168" width="117.181" height="64.1304" filterUnits="userSpaceOnUse" color-interpolation-filters="sRGB">
<feFlood flood-opacity="0" result="BackgroundImageFix"/>
<feBlend mode="normal" in="SourceGraphic" in2="BackgroundImageFix" result="shape"/>
<feGaussianBlur stdDeviation="8.28846" result="effect1_foregroundBlur"/>
</filter>
<filter id="filter3_f" x="-74.6647" y="-52.2104" width="188.869" height="195.279" filterUnits="userSpaceOnUse" color-interpolation-filters="sRGB">
<feFlood flood-opacity="0" result="BackgroundImageFix"/>
<feBlend mode="normal" in="SourceGraphic" in2="BackgroundImageFix" result="shape"/>
<feGaussianBlur stdDeviation="21.55" result="effect1_foregroundBlur"/>
</filter>
<filter id="filter4_f" x="-81.2875" y="-9.97087" width="177.694" height="182.461" filterUnits="userSpaceOnUse" color-interpolation-filters="sRGB">
<feFlood flood-opacity="0" result="BackgroundImageFix"/>
<feBlend mode="normal" in="SourceGraphic" in2="BackgroundImageFix" result="shape"/>
<feGaussianBlur stdDeviation="21.55" result="effect1_foregroundBlur"/>
</filter>
<filter id="filter5_f" x="-5.95323" y="-77.0572" width="177.694" height="182.461" filterUnits="userSpaceOnUse" color-interpolation-filters="sRGB">
<feFlood flood-opacity="0" result="BackgroundImageFix"/>
<feBlend mode="normal" in="SourceGraphic" in2="BackgroundImageFix" result="shape"/>
<feGaussianBlur stdDeviation="21.55" result="effect1_foregroundBlur"/>
</filter>
<filter id="filter6_f" x="-1.14276" y="42.8404" width="87.762" height="42.056" filterUnits="userSpaceOnUse" color-interpolation-filters="sRGB">
<feFlood flood-opacity="0" result="BackgroundImageFix"/>
<feBlend mode="normal" in="SourceGraphic" in2="BackgroundImageFix" result="shape"/>
<feGaussianBlur stdDeviation="2.07211" result="effect1_foregroundBlur"/>
</filter>
<linearGradient id="paint0_linear" x1="19.9871" y1="5.22215e-05" x2="75.3979" y2="69.643" gradientUnits="userSpaceOnUse">
<stop stop-color="#F88F03"/>
<stop offset="1" stop-color="#F86A03"/>
</linearGradient>
<radialGradient id="paint1_radial" cx="0" cy="0" r="1" gradientUnits="userSpaceOnUse" gradientTransform="translate(62.3691 46.7949) rotate(82.6769) scale(29.2264 46.2546)">
<stop stop-color="#FB3F39"/>
<stop offset="1" stop-color="#FB3F39" stop-opacity="0"/>
</radialGradient>
<radialGradient id="paint2_radial" cx="0" cy="0" r="1" gradientUnits="userSpaceOnUse" gradientTransform="translate(24.6775 29.8161) rotate(-101.763) scale(30.4558 48.2015)">
<stop stop-color="#FB3F39"/>
<stop offset="1" stop-color="#FB3F39" stop-opacity="0"/>
</radialGradient>
</defs>
</svg>
