<svg width="95" height="109" viewBox="0 0 95 109" fill="none" xmlns="http://www.w3.org/2000/svg">
<path d="M5.06522 103.55H14.2294V107.483H0V103.739L9.08239 91.9584H0.43615V88.215H14.1476L14.1749 91.9584L5.06522 103.55Z" fill="white"/>
<path d="M18.0789 94.0817C19.5873 92.577 21.4318 91.8246 23.6126 91.8246C25.7933 91.8246 27.6379 92.577 29.1462 94.0817C30.6728 95.5864 31.436 97.4673 31.436 99.7244C31.436 102 30.6818 103.89 29.1735 105.395C27.6833 106.881 25.8297 107.624 23.6126 107.624C21.4137 107.624 19.56 106.872 18.0517 105.367C16.5615 103.862 15.8164 101.982 15.8164 99.7244C15.8164 97.4673 16.5706 95.5864 18.0789 94.0817ZM26.3658 96.7242C25.6389 95.9534 24.7211 95.5681 23.6126 95.5681C22.504 95.5681 21.5772 95.9534 20.8321 96.7242C20.1052 97.4949 19.7418 98.495 19.7418 99.7244C19.7418 100.954 20.1052 101.954 20.8321 102.725C21.5772 103.495 22.504 103.881 23.6126 103.881C24.7211 103.881 25.6389 103.495 26.3658 102.725C27.1109 101.954 27.4834 100.954 27.4834 99.7244C27.4834 98.495 27.1109 97.4949 26.3658 96.7242Z" fill="white"/>
<path d="M34.1935 107.294V86.0994H38.2774V107.294H34.1935Z" fill="white"/>
<path d="M52.3976 92.1549H56.2957L56.2685 107.294H52.3704V105.257C51.2255 106.835 49.6626 107.624 47.6818 107.624C45.7009 107.624 44.0653 106.89 42.7751 105.422C41.4848 103.936 40.8397 102.037 40.8397 99.7244C40.8397 97.4123 41.4848 95.5222 42.7751 94.0542C44.0835 92.5678 45.71 91.8246 47.6545 91.8246C49.6535 91.8246 51.2346 92.6412 52.3976 94.2744V92.1549ZM48.5541 103.881C49.6626 103.881 50.5803 103.495 51.3073 102.725C52.0342 101.954 52.3976 100.954 52.3976 99.7244C52.3976 98.495 52.0342 97.4949 51.3073 96.7242C50.5803 95.9534 49.6626 95.5681 48.5541 95.5681C47.4455 95.5681 46.5369 95.9534 45.8281 96.7242C45.1194 97.4949 44.765 98.495 44.765 99.7244C44.765 100.954 45.1194 101.954 45.8281 102.725C46.555 103.495 47.4637 103.881 48.5541 103.881Z" fill="white"/>
<path fill-rule="evenodd" clip-rule="evenodd" d="M62.1771 87.0138C61.2627 87.9283 61.2627 89.4001 61.2627 92.3436V102.756C61.2627 105.699 61.2627 107.171 62.1771 108.086C63.0916 109 64.5634 109 67.507 109H88.1335C91.0771 109 92.5489 109 93.4634 108.086C94.3778 107.171 94.3778 105.699 94.3778 102.756V92.3436C94.3778 89.4001 94.3778 87.9283 93.4634 87.0138C92.5489 86.0994 91.0771 86.0994 88.1335 86.0994H67.507C64.5634 86.0994 63.0916 86.0994 62.1771 87.0138ZM76.6157 93.2713V90.5523H65.8748V93.2713H69.8288V104.547H72.642V93.2713H76.6157ZM90.6063 90.5523H87.6358L84.2915 101.168L80.9866 90.5523H78.0161L82.5211 104.547H86.062L90.6063 90.5523Z" fill="white"/>
<mask id="mask0" style="mask-type:alpha" maskUnits="userSpaceOnUse" x="12" y="0" width="71" height="73">
<path d="M68.5749 44.9557C77.3541 35.9458 82.7674 23.604 82.7674 9.99016C82.7674 8.35532 82.7674 7.5379 82.6517 6.85501C82.067 3.40415 79.3648 0.700706 75.9155 0.115756C75.2329 0 74.4159 0 72.7818 0H32.1335C22.6505 0 17.909 0 14.9631 2.94732C12.0171 5.89465 12.0171 10.6684 12.0171 20.2159C12.0171 23.6433 12.0171 25.3569 13.0746 26.4149C14.1322 27.473 15.8342 27.473 19.2384 27.473H26.2096C17.4304 36.4829 12.0171 48.8247 12.0171 62.4385C12.0171 64.0734 12.0171 64.8908 12.1328 65.5737C12.7175 69.0245 15.4197 71.728 18.869 72.3129C19.5516 72.4287 20.3686 72.4287 22.0027 72.4287H62.651C72.134 72.4287 76.8754 72.4287 79.8214 69.4814C82.7674 66.534 82.7674 61.7603 82.7674 52.2127C82.7674 48.7854 82.7674 47.0718 81.7099 46.0137C80.6523 44.9557 78.9503 44.9557 75.5461 44.9557H68.5749Z" fill="#FF9901"/>
</mask>
<g mask="url(#mask0)">
<path d="M68.5749 44.9557C77.3541 35.9458 82.7674 23.604 82.7674 9.99016V9.99016C82.7674 5.27274 82.7674 2.91403 81.3104 1.45702C79.8534 0 77.5083 0 72.8183 0H15.9967C14.1207 0 13.1827 0 12.5999 0.582807C12.0171 1.16561 12.0171 2.10363 12.0171 3.97965V23.4933C12.0171 25.3693 12.0171 26.3073 12.5999 26.8901C13.1827 27.473 14.1207 27.473 15.9967 27.473H26.2096C17.4304 36.4829 12.0171 48.8247 12.0171 62.4385V62.4385C12.0171 67.1559 12.0171 69.5147 13.4741 70.9717C14.9311 72.4287 17.2762 72.4287 21.9662 72.4287H78.7877C80.6638 72.4287 81.6018 72.4287 82.1846 71.8459C82.7674 71.2631 82.7674 70.3251 82.7674 68.449V48.9354C82.7674 47.0594 82.7674 46.1214 82.1846 45.5385C81.6018 44.9557 80.6638 44.9557 78.7877 44.9557H68.5749Z" fill="url(#paint0_linear)"/>
<g style="mix-blend-mode:screen" filter="url(#filter0_f)">
<path fill-rule="evenodd" clip-rule="evenodd" d="M82.7671 8.70485C82.6726 22.1762 77.2776 34.3799 68.5759 43.3103H68.8804L68.8789 43.3119C62.0708 50.6179 52.7718 56.3828 44.9489 61.2325L44.9488 61.2325C42.0749 63.0142 39.4002 64.6724 37.1214 66.2381C38.7869 65.4003 40.8099 64.3649 43.0588 63.1522C44.926 61.954 46.8595 60.804 48.8351 59.6288L48.8352 59.6288C55.3479 55.755 62.3181 51.6091 68.8774 44.57C69.1051 44.341 69.3475 44.108 69.5972 43.877C77.773 34.9728 82.7684 23.0689 82.7684 9.9911C82.7684 9.54131 82.7684 9.11301 82.7671 8.70485ZM82.7684 66.8036C82.7684 68.6797 82.7684 69.6177 82.1856 70.2005C81.6028 70.7833 80.6647 70.7833 78.7887 70.7833H21.9672C17.2771 70.7833 14.9321 70.7833 13.4751 69.3263C12.157 68.0082 12.0313 65.9521 12.0193 62.0794C12.0185 62.1993 12.0181 62.3193 12.0181 62.4395C12.0181 67.1569 12.0181 69.5156 13.4751 70.9726C14.9321 72.4296 17.2771 72.4296 21.9672 72.4296H78.7887C80.6647 72.4296 81.6028 72.4296 82.1856 71.8468C82.7684 71.264 82.7684 70.326 82.7684 68.45V66.8036ZM51.9886 8.97024C53.254 8.35853 54.4692 7.78644 55.6199 7.24479C56.3739 6.88983 57.1002 6.54794 57.7946 6.21652C55.254 7.88548 52.5719 9.40618 49.8085 10.973L49.8085 10.9731C43.2168 14.7105 36.162 18.7106 29.4579 25.6119C21.6194 34.6904 20.9291 34.1354 23.0723 31.0145C23.8164 30.0906 24.5926 29.194 25.3992 28.3264C25.7102 28.0435 26.0128 27.7555 26.2931 27.4736C32.8524 20.4345 39.8226 16.2886 46.3353 12.4148L46.3353 12.4148C48.2676 11.2655 50.1596 10.1401 51.9886 8.97024ZM26.0282 25.8276H15.9977C14.1217 25.8276 13.1837 25.8276 12.6009 25.2447C12.0181 24.6619 12.0181 23.7239 12.0181 21.8479V23.4942C12.0181 25.3703 12.0181 26.3083 12.6009 26.8911C13.1837 27.4739 14.1217 27.4739 15.9977 27.4739H24.431L24.4312 27.4736C24.958 26.9105 25.4907 26.362 26.0282 25.8276Z" fill="#FFB800"/>
</g>
<g style="mix-blend-mode:screen" filter="url(#filter1_f)">
<path d="M71.5243 41.6637C70.4009 43.1011 69.1442 44.4749 67.8735 45.779H76.186C79.2885 45.779 80.8397 45.779 81.8036 46.7432C82.7674 47.7075 82.7674 49.2595 82.7674 52.3634L82.7674 48.2481C82.7674 45.1442 82.7674 43.5922 81.8036 42.628C80.8397 41.6637 79.2885 41.6637 76.186 41.6637H71.5243Z" fill="#FFF5DB"/>
<path d="M12.0482 61.4749C12.4992 48.5699 17.7642 36.0829 26.1578 27.4688L22.3537 27.5333C15.7151 36.0272 12.0171 47.503 12.0171 59.1465C12.0171 60.2022 12.0171 60.9171 12.0482 61.4749Z" fill="#FFF5DB"/>
<path d="M82.7674 6.69811C82.7674 7.29621 82.757 7.89185 82.7362 8.48486C82.7191 8.17887 82.6927 7.92011 82.6517 7.67822C82.067 4.22737 79.3648 1.52392 75.9155 0.93897C75.2329 0.823215 74.4159 0.823215 72.7818 0.823215H18.5985C15.496 0.823215 13.9447 0.823215 12.9809 1.78748C12.0411 2.72773 12.0177 4.22677 12.0171 7.17859V3.29238C12.0171 0.188447 12.0171 -1.36352 12.9809 -2.32779C13.9447 -3.29205 15.496 -3.29205 18.5985 -3.29205H72.7818C74.4159 -3.29205 75.2329 -3.29205 75.9155 -3.1763C79.3648 -2.59135 82.067 0.112099 82.6517 3.56296C82.7674 4.24585 82.7674 5.06327 82.7674 6.69811Z" fill="#FFF5DB"/>
</g>
<g style="mix-blend-mode:multiply">
<path d="M40.8108 64.6097C47.6665 60.4944 61.6838 53.4642 71.6612 41.5642L90.5828 39.9181L93.4622 74.4863L12.0171 76.544L40.8108 64.6097Z" fill="url(#paint1_radial)"/>
</g>
<g style="mix-blend-mode:multiply">
<path d="M53.5376 8.22969C46.682 12.345 32.6694 19.6627 22.6872 31.2752L3.7655 32.9213L0.886111 -1.64695L76.1611 -3.70458L53.5376 8.22969Z" fill="url(#paint2_radial)" fill-opacity="0.7"/>
</g>
<g style="mix-blend-mode:overlay" filter="url(#filter2_f)">
<path d="M26.9313 23.3587C17.8819 23.3587 10.8101 15.7251 10.8101 7.90609L33.4337 -1.55902L94.3119 3.79082C90.6098 12.7072 81.1554 32.6633 81.1554 28.7127C81.1554 23.7743 74.0239 12.5864 61.6837 12.5864C49.3435 12.5864 47.4983 23.3587 26.9313 23.3587Z" fill="#FFD600"/>
</g>
<g style="mix-blend-mode:hue" filter="url(#filter3_f)">
<rect width="41.7226" height="107.417" transform="matrix(0.753434 -0.657523 0.657183 0.753731 -28.6782 18.3804)" fill="#E73361"/>
</g>
<g style="mix-blend-mode:overlay" filter="url(#filter4_f)">
<rect width="41.7226" height="90.518" transform="matrix(0.753434 -0.657523 0.657183 0.753731 -35.2593 60.3561)" fill="#E73361"/>
</g>
<g style="mix-blend-mode:overlay" filter="url(#filter5_f)">
<rect width="41.7226" height="90.518" transform="matrix(0.753434 -0.657523 0.657183 0.753731 39.604 -6.31116)" fill="#FFC700"/>
</g>
<g style="mix-blend-mode:multiply" filter="url(#filter6_f)">
<path d="M28.295 65.4324C17.1194 63.5048 14.3584 57.3904 14.3584 46.6907L5.67139 65.4324L22.1249 80.2474L84.6485 69.9592C83.0031 65.9811 76.3394 58.0249 62.8475 58.0249C45.9826 58.0249 41.1803 67.6549 28.295 65.4324Z" fill="#F87103" fill-opacity="0.38"/>
</g>
</g>
<path d="M56.491 37.9597C56.414 38.0638 56.055 38.5062 55.7729 38.7924L55.6191 38.9486C53.465 41.3165 48.1055 44.8815 45.3872 46.0264C45.3872 46.0524 43.7717 46.729 43.0024 46.755H42.8998C41.7202 46.755 40.6175 46.0784 40.0533 44.9855C39.7456 44.387 39.4635 42.6436 39.4379 42.6176C39.2071 41.0563 39.0532 38.6649 39.0532 36.0342C39.0532 33.2759 39.2071 30.7778 39.4892 29.2425C39.4892 29.2165 39.7712 27.8114 39.9508 27.343C40.2328 26.6664 40.7457 26.0939 41.3868 25.7296C41.8997 25.4694 42.4382 25.3393 43.0024 25.3393C43.5922 25.3653 44.6948 25.7583 45.1308 25.9378C48.0029 27.0828 53.4906 30.8299 55.5934 33.1197C55.9524 33.484 56.3371 33.9264 56.4397 34.0305C56.8756 34.603 57.1064 35.3056 57.1064 36.0628C57.1064 36.7367 56.9013 37.4133 56.491 37.9597" fill="white"/>
<defs>
<filter id="filter0_f" x="10.7705" y="4.96893" width="73.2455" height="68.7083" filterUnits="userSpaceOnUse" color-interpolation-filters="sRGB">
<feFlood flood-opacity="0" result="BackgroundImageFix"/>
<feBlend mode="normal" in="SourceGraphic" in2="BackgroundImageFix" result="shape"/>
<feGaussianBlur stdDeviation="0.623794" result="effect1_foregroundBlur"/>
</filter>
<filter id="filter1_f" x="11.0222" y="-4.28697" width="72.7401" height="66.7568" filterUnits="userSpaceOnUse" color-interpolation-filters="sRGB">
<feFlood flood-opacity="0" result="BackgroundImageFix"/>
<feBlend mode="normal" in="SourceGraphic" in2="BackgroundImageFix" result="shape"/>
<feGaussianBlur stdDeviation="0.497457" result="effect1_foregroundBlur"/>
</filter>
<filter id="filter2_f" x="0.860924" y="-11.5082" width="103.4" height="50.6813" filterUnits="userSpaceOnUse" color-interpolation-filters="sRGB">
<feFlood flood-opacity="0" result="BackgroundImageFix"/>
<feBlend mode="normal" in="SourceGraphic" in2="BackgroundImageFix" result="shape"/>
<feGaussianBlur stdDeviation="4.97457" result="effect1_foregroundBlur"/>
</filter>
<filter id="filter3_f" x="-54.546" y="-34.921" width="153.763" height="160.133" filterUnits="userSpaceOnUse" color-interpolation-filters="sRGB">
<feFlood flood-opacity="0" result="BackgroundImageFix"/>
<feBlend mode="normal" in="SourceGraphic" in2="BackgroundImageFix" result="shape"/>
<feGaussianBlur stdDeviation="12.9339" result="effect1_foregroundBlur"/>
</filter>
<filter id="filter4_f" x="-61.127" y="7.0548" width="142.658" height="147.395" filterUnits="userSpaceOnUse" color-interpolation-filters="sRGB">
<feFlood flood-opacity="0" result="BackgroundImageFix"/>
<feBlend mode="normal" in="SourceGraphic" in2="BackgroundImageFix" result="shape"/>
<feGaussianBlur stdDeviation="12.9339" result="effect1_foregroundBlur"/>
</filter>
<filter id="filter5_f" x="13.7363" y="-59.6125" width="142.658" height="147.395" filterUnits="userSpaceOnUse" color-interpolation-filters="sRGB">
<feFlood flood-opacity="0" result="BackgroundImageFix"/>
<feBlend mode="normal" in="SourceGraphic" in2="BackgroundImageFix" result="shape"/>
<feGaussianBlur stdDeviation="12.9339" result="effect1_foregroundBlur"/>
</filter>
<filter id="filter6_f" x="3.1841" y="44.2035" width="83.9516" height="38.5312" filterUnits="userSpaceOnUse" color-interpolation-filters="sRGB">
<feFlood flood-opacity="0" result="BackgroundImageFix"/>
<feBlend mode="normal" in="SourceGraphic" in2="BackgroundImageFix" result="shape"/>
<feGaussianBlur stdDeviation="1.24364" result="effect1_foregroundBlur"/>
</filter>
<linearGradient id="paint0_linear" x1="22.5512" y1="5.18952e-05" x2="77.6159" y2="69.2079" gradientUnits="userSpaceOnUse">
<stop stop-color="#F88F03"/>
<stop offset="1" stop-color="#F86A03"/>
</linearGradient>
<radialGradient id="paint1_radial" cx="0" cy="0" r="1" gradientUnits="userSpaceOnUse" gradientTransform="translate(64.6685 46.5025) rotate(82.6769) scale(29.0438 45.9657)">
<stop stop-color="#FB3F39"/>
<stop offset="1" stop-color="#FB3F39" stop-opacity="0"/>
</radialGradient>
<radialGradient id="paint2_radial" cx="0" cy="0" r="1" gradientUnits="userSpaceOnUse" gradientTransform="translate(27.2118 29.6291) rotate(-101.763) scale(30.2655 47.9004)">
<stop stop-color="#FB3F39"/>
<stop offset="1" stop-color="#FB3F39" stop-opacity="0"/>
</radialGradient>
</defs>
</svg>
